<?xml version="1.0" standalone="no"?>
<!DOCTYPE svg PUBLIC "-//W3C//DTD SVG 1.1//EN" "http://www.w3.org/Graphics/SVG/1.1/DTD/svg11.dtd" >
<!--
2013-9-30: Created.
-->
<svg>
<metadata>
Created by iconfont
</metadata>
<defs>

<font id="iconfont" horiz-adv-x="1024" >
  <font-face
    font-family="iconfont"
    font-weight="500"
    font-stretch="normal"
    units-per-em="1024"
    ascent="896"
    descent="-128"
  />
    <missing-glyph />
    
    <glyph glyph-name="time" unicode="&#58975;" d="M512 832C264.96 832 64 631.04 64 384s200.96-448 448-448 448 200.96 448 448S759.04 832 512 832zM512 0.288c-211.584 0-383.712 172.16-383.712 383.712C128.288 595.584 300.416 767.712 512 767.712c211.552 0 383.712-172.128 383.712-383.712C895.712 172.448 723.552 0.288 512 0.288zM671.968 384 512 384 512 607.936c0 17.76-14.24 32.128-32 32.128s-32-14.4-32-32.128L448 352c0-17.76 14.272-32 32-32l191.968 0c17.76 0 32.128 14.24 32.128 32S689.728 384 671.968 384z"  horiz-adv-x="1024" />

    
    <glyph glyph-name="qiyebangonglou" unicode="&#58986;" d="M184.685714 675.657143l146.285714 0 0-109.714286-146.285714 0 0 109.714286ZM404.114286 675.657143l146.285714 0 0-109.714286-146.285714 0 0 109.714286ZM184.685714 492.8l146.285714 0 0-109.714286-146.285714 0 0 109.714286ZM404.114286 492.8l146.285714 0 0-109.714286-146.285714 0 0 109.714286ZM769.828571 492.8l73.142857 0 0-109.714286-73.142857 0 0 109.714286ZM769.828571 309.942857l73.142857 0 0-109.714286-73.142857 0 0 109.714286ZM184.685714 309.942857l146.285714 0 0-109.714286-146.285714 0 0 109.714286ZM404.114286 309.942857l146.285714 0 0-109.714286-146.285714 0 0 109.714286ZM989.257143-19.2l0 658.285714-292.571429 0 0 219.428571-658.285714 0 0-877.714286-36.571429 0 0-73.142857 1024 0 0 73.142857L989.257143-19.2zM111.542857-19.2l0 804.571429 512 0 0-804.571429L111.542857-19.2zM696.685714-19.2l0 585.142857 219.428571 0 0-585.142857L696.685714-19.2z"  horiz-adv-x="1026" />

    
    <glyph glyph-name="msnui-report-map" unicode="&#59221;" d="M898.5 828.457h-773c-32.026 0-57.975-25.948-57.975-57.954v-541.096c0-32.006 25.949-57.972 57.975-57.972h773c32.026 0 57.975 25.966 57.975 57.972v541.096c0 32.006-25.95 57.954-57.975 57.954zM898.48 248.769c0-10.681-8.643-19.325-19.325-19.325l-734.331 0c-10.682 0-19.325 8.643-19.325 19.325l-0 502.428c0 10.681 8.643 19.324 19.325 19.324h734.331c10.682 0 19.325-8.643 19.325-19.324l-0-502.428zM666.599 74.812c0 10.681-8.663 19.325-19.325 19.325l-270.55-0c-10.662 0-19.325-8.643-19.325-19.325v-77.296l-193.25 0v-57.972h695.68v57.972h-193.231v77.296zM743.164 327.103l-123.914 130.495-9.010 11.508-11.014-11.508-74.941-78.939-131.557 138.572-8.989 9.862-11.035-9.862-169.905-178.937 20.023-21.080 159.884 168.389 131.576-138.572 10.679-13.684 9.345 13.684 74.941 78.92 131.575-138.572 18.826-17.477 4.916 24.403 56.635 238.59-27.479 7.247-50.555-213.039zM463.214 587.622c0 0 56.465-123.399 56.465-152.273 0 0 26.836 100.961 49.784 144.101 9.644 12.059 15.683 27.419 15.683 44.424 0 38.271-29.479 69.314-65.826 69.314-36.367 0-65.826-31.043-65.826-69.314 0-13.343 3.756-25.666 9.946-36.252l-0.226-0z"  horiz-adv-x="1024" />

    
    <glyph glyph-name="qingdan" unicode="&#59139;" d="M329.142857 603.428571l365.714286 0 0-73.142857-365.714286 0 0 73.142857ZM182.857143 603.428571l73.142857 0 0-73.142857-73.142857 0 0 73.142857ZM329.142857 420.571429l365.714286 0 0-73.142857-365.714286 0 0 73.142857ZM182.857143 420.571429l73.142857 0 0-73.142857-73.142857 0 0 73.142857ZM329.142857 237.714286l365.714286 0 0-73.142857-365.714286 0 0 73.142857ZM182.857143 237.714286l73.142857 0 0-73.142857-73.142857 0 0 73.142857ZM987.428571 603.428571l-109.714286 0L877.714286 786.285714c0 20.196571-16.356571 36.571429-36.571429 36.571429L36.571429 822.857143C16.3584 822.857143 0 806.482286 0 786.285714l0-804.571429c0-20.214857 16.356571-36.571429 36.571429-36.571429l950.857143 0c20.214857 0 36.571429 16.356571 36.571429 36.571429L1024 566.857143C1024 587.053714 1007.643429 603.428571 987.428571 603.428571zM73.142857 18.285714 73.142857 749.714286l731.428571 0 0-731.428571L73.142857 18.285714zM950.857143 18.285714l-73.142857 0L877.714286 530.285714l73.142857 0L950.857143 18.285714z"  horiz-adv-x="1024" />

    
    <glyph glyph-name="shuju" unicode="&#58937;" d="M420.096 805.76l180.032 0 0-663.552-180.032 0 0 663.552ZM180.224 498.368l179.968 0 0-356.16-179.968 0 0 356.16ZM660.032 617.344l180.032 0 0-475.2-180.032 0 0 475.2ZM64 79.36l896 0 0-117.12-896 0 0 117.12ZM485.76 736.384l114.368 0 0-594.24-114.368 0 0 594.24ZM245.824 430.848l114.368 0 0-288.704-114.368 0 0 288.704ZM725.696 554.56l114.368 0 0-412.352-114.368 0 0 412.352ZM123.072 20.352l836.928 0 0-58.112-836.928 0 0 58.112Z"  horiz-adv-x="1024" />

    
    <glyph glyph-name="ditu1" unicode="&#59030;" d="M812.8 344.768c56 72.384 99.008 133.824 99.008 203.328 0 112.896-94.848 204.352-211.968 204.352s-211.968-91.52-211.968-204.352c0-62.4 36.864-121.984 85.056-186.368l-57.984-18.56L402.56 378.688C416.448 401.92 425.344 424.448 425.344 448.704c0 64.064-51.84 115.968-115.712 115.968-63.936 0-115.712-51.904-115.712-115.968 0-26.752 11.712-52.672 28.672-79.488L222.08 369.152 64 15.488l238.848 90.112 217.344-90.112 204.032 90.112L960 15.488 812.8 344.768zM699.904 647.36c56.832 0 102.912-44.416 102.912-99.264s-46.144-99.328-102.912-99.328c-56.896 0-102.912 44.48-102.912 99.328S643.008 647.36 699.904 647.36zM309.696 505.024c30.976 0 56.192-25.216 56.192-56.32 0-31.04-25.216-56.32-56.192-56.32-31.04 0-56.192 25.28-56.192 56.32C253.504 479.808 278.656 505.024 309.696 505.024zM720.128 159.168l-200.064-86.656-213.248 86.656-159.04-72.448 91.136 235.136 14.848 2.816c18.112-24.192 37.888-49.728 55.936-78.08C332.16 282.496 355.776 312.32 375.936 339.712L515.072 295.04l87.104 28.352c31.872-40.896 66.176-84.032 97.664-131.584 29.504 45.312 60.032 84.864 88.64 121.536l91.904-229.504L720.128 159.168z"  horiz-adv-x="1024" />

    
    <glyph glyph-name="list" unicode="&#59029;" d="M128.952442 733.490789c-35.902698 0-64.99734-28.940123-64.99734-64.617693 0-35.677571 29.094642-64.60746 64.99734-64.60746s65.00041 28.92989 65.00041 64.60746C193.951829 704.549643 164.85514 733.490789 128.952442 733.490789L128.952442 733.490789zM933.280324 737.197204 294.242999 737.197204c-14.795984 0-26.761504-11.916401-26.761504-26.601868l0-73.653487c0-14.700817 11.961426-26.601868 26.761504-26.601868l639.038348 0c14.781658 0 26.762527 11.900028 26.762527 26.601868l0 73.653487C960.043874 725.281827 948.063005 737.197204 933.280324 737.197204L933.280324 737.197204zM933.280324 455.243601 294.242999 455.243601c-14.795984 0-26.761504-11.906168-26.761504-26.612101l0-73.646324c0-14.691607 11.961426-26.601868 26.761504-26.601868l639.038348 0c14.781658 0 26.762527 11.910261 26.762527 26.601868L960.043874 428.632523C960.043874 443.338457 948.063005 455.243601 933.280324 455.243601L933.280324 455.243601zM933.280324 173.292044 294.242999 173.292044c-14.795984 0-26.761504-11.905144-26.761504-26.590612l0-73.658603c0-14.685467 11.961426-26.611078 26.761504-26.611078l639.038348 0c14.781658 0 26.762527 11.92561 26.762527 26.611078l0 73.658603C960.043874 161.3869 948.063005 173.292044 933.280324 173.292044L933.280324 173.292044zM128.952442 451.537186c-35.902698 0-64.99734-28.930913-64.99734-64.617693 0-35.671431 29.094642-64.602344 64.99734-64.602344s65.00041 28.92989 65.00041 64.602344C193.951829 422.606273 164.85514 451.537186 128.952442 451.537186L128.952442 451.537186zM128.952442 169.581536c-35.902698 0-64.99734-28.92989-64.99734-64.608483s29.094642-64.60439 64.99734-64.60439 65.00041 28.92682 65.00041 64.60439S164.85514 169.581536 128.952442 169.581536L128.952442 169.581536zM128.952442 169.581536"  horiz-adv-x="1024" />

    
    <glyph glyph-name="nongyaohuafei" unicode="&#58923;" d="M484.3776 580.0448c0 0 491.8272-67.8912 503.3216-138.9568 11.4944-71.0656-149.6064-423.5008-261.8112-453.7088-112.1536-30.208-678.3744 149.6576-680.3712 222.9504C42.7776 311.1936 111.9488 456.32 484.3776 580.0448zM382.5152 461.7216c-43.6992-43.1616 148.6848-61.824 171.6736-58.9824 23.04 2.8928 99.3024 81.9968 83.3536 90.624-15.8976 8.6528-173.952 31.6672-173.952 31.6672S426.2144 504.8832 382.5152 461.7216zM640.0512 420.4032c-30.7456-44.2112 145.7408-76.5952 164.2496-82.3808s52.5568 25.9072 66.3552 37.4016c13.9008 11.52 18.7392 28.7744 7.1936 44.9792-11.4944 16.2048-175.4624 64.3584-175.4624 64.3584S670.7456 464.6144 640.0512 420.4032zM420.4544 185.5488c20.1472-34.5088 219.5968-55.5008 219.5968-55.5008s114.0992 104.3968 131.4048 151.3984c-25.9072 46.9504-215.7568 70.9632-215.7568 70.9632C471.3216 284.4416 431.9488 220.0576 420.4544 185.5488zM173.5424 315.008c-94.4384-83.4048 87.9104-105.9072 132.3776-103.552 35.1488 1.8432 149.0688 117.9392 157.6704 140.9792 8.6528 22.9888-158.2336 58.7008-158.2336 58.7008S268.0064 398.4384 173.5424 315.008zM361.6768 619.5712c0 0 50.4832-82.56 145.5104-44.7232C507.1872 574.848 460.2624 645.9136 361.6768 619.5712M425.9584 694.2208c0 0 9.6256-66.3296 81.152-67.072C507.1104 627.1488 496.5632 685.184 425.9584 694.2208M597.9904 694.2208c0 0-9.6512-66.3296-81.152-67.072C516.8384 627.1488 527.3856 685.184 597.9904 694.2208M669.3888 619.5712c0 0-50.4576-82.56-145.536-44.7232C523.8784 574.848 570.8032 645.9136 669.3888 619.5712M509.3632 675.968c0 0-36.608 28.3136 0.8192 108.0064C510.208 783.9744 551.552 713.4208 509.3632 675.968"  horiz-adv-x="1024" />

    
    <glyph glyph-name="fangwen" unicode="&#58949;" d="M997.8112-39.3984c-26.5984 38.1952-49.9456 67.4048-75.8528 88.8576-25.5488 21.4016-56.2944 34.4064-88.6016 34.0992-29.7472-0.1024-58.496-9.4464-89.7536-24.0896-31.36-14.7456-65.792-35.3536-107.1104-61.312-38.912-24.3456-68.4032-31.5904-90.2912-31.5904-31.8976 0.1536-52.8896 15.0016-68.992 32.3584 99.6096 5.4016 188.8512 54.656 253.1584 129.4592 68.4544 79.488 110.0032 188.0576 110.0544 307.2256-0.0512 119.1936-41.6 227.7376-110.0544 307.2512-68.2496 79.4112-164.7104 130.048-271.6928 129.9712C351.6416 872.8832 255.1808 822.2464 186.9056 742.8352c-68.4544-79.488-110.0032-188.0576-110.0288-307.2512 0.0256-119.1936 41.5744-227.7376 110.0288-307.2256 52.992-61.6448 123.0592-105.856 201.8304-122.5472 1.6896-3.9936 11.9296-28.4928 35.328-54.5024 23.808-26.8032 64.896-56.0896 121.728-56.0896 0.1024 0 0.256 0 0.4096 0 38.1952 0 81.1008 12.9536 128.256 42.5472 40.448 25.4464 73.1904 44.8 99.5072 57.1392 26.3936 12.4928 45.5936 17.408 59.392 17.3056 14.7968-0.3072 25.9584-3.9936 43.2896-17.8944 16.9984-13.8496 37.7088-38.4512 62.592-74.3936 11.2128-16.2048 33.4592-20.1984 49.6128-8.96C1005.056-77.7984 1009.0496-55.6032 997.8112-39.3984zM482.4576 800.2816C557.1584 793.6 624.7936 755.8912 676.352 696.2432c31.2576-36.1984 56.0896-80.4096 72.192-129.8944L482.4576 566.3488 482.4576 800.2816zM240.9472 696.2432c51.5328 59.648 119.1936 97.3824 193.92 104.0384l0-233.9584L168.7296 566.3232C184.8576 615.8336 209.6896 660.0448 240.9472 696.2432zM240.9472 174.9504c-56.832 65.792-92.7488 158.1056-92.7232 260.6336 0 20.2496 1.4336 40.0896 4.1472 59.4432l612.5824 0c2.6624-19.3536 4.096-39.1936 4.096-59.4432 0.0512-102.528-35.8912-194.8416-92.6976-260.6848-56.96-65.8944-133.6064-105.1904-217.6768-105.2416C374.528 69.7088 297.9328 109.0048 240.9472 174.9504z"  horiz-adv-x="1024" />

    
    <glyph glyph-name="zanwushuju" unicode="&#58927;" d="M958.66 607.357h0.025l-446.689 223.339-446.708-222.931v-447.115l446.708-223.345 446.714 223.345v446.708h-0.050zM511.996 776.587l335.906-168.381-127.914-64.487-337.519 167.877 129.527 64.99zM323.935 679.915l341.853-164.712-153.816-74.502-335.877 166.657 147.84 72.558zM121.126 550.86h17.753l-17.753 0.653v27.916l362.961-181.485v-390.871l-362.961 181.481v362.307zM902.867 523.585v-335.031l-362.962-181.481v390.871l362.962 181.485v-55.844z"  horiz-adv-x="1024" />

    
    <glyph glyph-name="xiaoxituisong" unicode="&#58921;" d="M792.9344 76.8 231.0656 76.8C202.4704 76.8 179.2 99.328 179.2 127.0016l0 34.2528c0 45.7728 31.616 82.0224 76.8 92.0064L256 460.8c0 139.8272 112.4608 230.4 256 230.4s256-90.5728 256-230.4l0-207.5392c45.184-9.984 76.8-46.2336 76.8-92.0064l0-34.2528C844.8 99.328 821.5296 76.8 792.9344 76.8zM281.6 204.8c-30.1568 0-51.2-17.8944-51.2-43.5456l0-34.2528L792.9344 128c0.768 0 1.0752 0.3072 1.0752 0.3072L793.6 161.2544C793.6 186.9056 772.5568 204.8 742.4 204.8l-25.6 0L716.8 460.8c0 111.1296-89.9584 179.2-204.8 179.2s-204.8-68.0704-204.8-179.2l0-256L281.6 204.8zM793.6 179.2 435.2 179.2c-14.1568 0-25.6 11.4432-25.6 25.6s11.4432 25.6 25.6 25.6l358.4 0c14.1568 0 25.6-11.4432 25.6-25.6S807.7568 179.2 793.6 179.2zM640 640l-51.2 0c0 48.9984-33.8432 76.8-76.8 76.8-41.8048 0-76.8-26.1376-76.8-76.8l-51.2 0c0 79.3856 57.4976 128 128 128C583.936 768 640 718.0544 640 640zM512 64m-64 0a2.5 2.5 0 1 0 128 0 2.5 2.5 0 1 0-128 0Z"  horiz-adv-x="1024" />

    
    <glyph glyph-name="xiazai" unicode="&#58939;" d="M512 110.933333c-8.738133 0-17.476267 3.345067-24.1664 9.966933l-341.333333 341.333333C136.738133 472.064 133.802667 486.673067 139.127467 499.438933 144.384 512.2048 156.8768 520.533333 170.666667 520.533333L341.333333 520.533333 341.333333 827.733333c0 18.8416 15.291733 34.133333 34.133333 34.133333l273.066667 0C667.374933 861.866667 682.666667 846.574933 682.666667 827.733333l0-307.2 170.666667 0c13.789867 0 26.282667-8.328533 31.5392-21.0944s2.321067-27.4432-7.3728-37.205333l-341.333333-341.333333C529.476267 114.2784 520.738133 110.933333 512 110.933333zM253.064533 452.266667 512 193.3312 770.935467 452.266667 648.533333 452.266667C629.691733 452.266667 614.4 467.5584 614.4 486.4L614.4 793.6 409.6 793.6 409.6 486.4c0-18.8416-15.291733-34.133333-34.133333-34.133333L253.064533 452.266667zM989.866667-93.866667l-955.733333 0C15.291733-93.866667 0-78.574933 0-59.733333s15.291733 34.133333 34.133333 34.133333l955.733333 0c18.8416 0 34.133333-15.291733 34.133333-34.133333S1008.708267-93.866667 989.866667-93.866667z"  horiz-adv-x="1024" />

    
    <glyph glyph-name="guanbi" unicode="&#58933;" d="M887.132284 62.106756 560.497039 388.742001l320.308143 320.314283c12.085246 12.087293 12.085246 31.670304 0 43.756573-12.08627 12.085246-31.68463 12.085246-43.756573 0L516.740466 432.499597l-326.639339 326.640362c-12.025894 12.025894-31.535227 12.025894-43.561122 0-12.040221-12.025894-12.040221-31.54853 0-43.575448l326.633199-326.633199L136.905578 52.660616c-12.079106-12.08627-12.079106-31.668257 0-43.754526 12.08627-12.087293 31.677467-12.087293 43.763736 0l336.261487 336.266603 326.642408-326.642408c12.025894-12.025894 31.518854-12.025894 43.559075 0C899.159202 30.557202 899.159202 50.080861 887.132284 62.106756z"  horiz-adv-x="1024" />

    
    <glyph glyph-name="qiye" unicode="&#58935;" d="M1189.542786 37.92292l-31.450341 0L1158.092445 495.019031c0 27.679906-22.433002 50.119124-50.122232 50.119124l-224.507193 0L883.463019 845.877768c0 27.679906-22.433002 50.122232-50.122232 50.122232L337.12913 896c-27.673689 0-50.119124-22.442327-50.119124-50.122232l0-807.954847-11.364148 0c-27.679906 0-50.122232-22.433002-50.122232-50.109799l0-65.688877c0-27.676798 22.442327-50.119124 50.122232-50.119124l913.896928 0c27.683015 0 50.116015 22.442327 50.116015 50.119124l0 65.688877C1239.658802 15.489919 1217.228909 37.92292 1189.542786 37.92292L1189.542786 37.92292zM739.785502 221.020602c0-27.689231-22.445435-50.122232-50.122232-50.122232l-208.84419 0c-27.683015 0-50.122232 22.433002-50.122232 50.122232l0 15.035116c0 27.679906 22.439219 50.116015 50.122232 50.116015l208.84419 0c27.676798 0 50.122232-22.43611 50.122232-50.116015L739.785502 221.020602 739.785502 221.020602zM739.785502 439.883022c0-27.679906-22.445435-50.122232-50.122232-50.122232l-208.84419 0c-27.683015 0-50.122232 22.442327-50.122232 50.122232l0 15.035116c0 27.679906 22.439219 50.122232 50.122232 50.122232l208.84419 0c27.676798 0 50.122232-22.442327 50.122232-50.122232L739.785502 439.883022 739.785502 439.883022zM739.785502 675.462177c0-27.683015-22.445435-50.122232-50.122232-50.122232l-208.84419 0c-27.683015 0-50.122232 22.439219-50.122232 50.122232l0 15.028899c0 27.689231 22.439219 50.125341 50.122232 50.125341l208.84419 0c27.676798 0 50.122232-22.439219 50.122232-50.125341L739.785502 675.462177 739.785502 675.462177zM1059.517166 131.627406l-133.659287 0c-23.063998 0-41.766973 18.702975-41.766973 41.77319 0 23.06089 18.702975 41.766973 41.766973 41.766973l133.659287 0c23.070215 0 41.770081-18.706083 41.770081-41.766973C1101.290357 150.33038 1082.587381 131.627406 1059.517166 131.627406L1059.517166 131.627406zM1059.517166 300.380026l-133.659287 0c-23.063998 0-41.766973 18.699867-41.766973 41.760756 0 23.07954 18.702975 41.776298 41.766973 41.776298l133.659287 0c23.070215 0 41.770081-18.699867 41.770081-41.776298C1101.290357 319.079893 1082.587381 300.380026 1059.517166 300.380026L1059.517166 300.380026zM1059.517166 300.380026"  horiz-adv-x="1399" />

    
    <glyph glyph-name="zhankai" unicode="&#58931;" d="M664.609 775.196h-571.16c-13.671 0-24.841-10.9-25.206-24.538v-76.929c0.364-13.638 11.534-24.538 25.206-24.538h571.16c13.901 0 25.222 11.267 25.222 25.223v75.557c0.001 13.958-11.322 25.224-25.222 25.224zM93.442 338.423h495.547c13.957 0 25.223 11.267 25.223 25.223v75.557c0 13.957-11.267 25.223-25.223 25.223l-495.547 0c-13.59 0-24.71-10.77-25.2-24.293v-77.415c0.491-13.524 11.609-24.295 25.2-24.295zM664.609 153.628h-571.16c-13.671 0-24.841-10.9-25.206-24.538v-76.929c0.364-13.638 11.534-24.538 25.206-24.538h571.16c13.901 0 25.222 11.267 25.222 25.223v75.557c0.001 13.958-11.322 25.224-25.222 25.224zM952.532 415.864l-209.575 161.82c-11.659 9.416-33.742 4.092-33.742-23.878v-309.626c0-33.967 22.084-33.911 33.742-23.878l209.575 161.82c11.602 8.743 10.817 24.381 0 33.742z"  horiz-adv-x="1024" />

    
    <glyph glyph-name="shouqi" unicode="&#58943;" d="M678.685 774.965h-572.869c-13.996 0-25.283-11.343-25.283-25.283v-75.792c0-13.996 11.287-25.283 25.283-25.283h572.87c13.939 0 25.283 11.287 25.283 25.283v75.792c-0.001 13.939-11.344 25.283-25.284 25.283M105.799 336.874h497.078c13.939 0 25.283 11.343 25.283 25.283v75.792c0 13.996-11.343 25.283-25.283 25.283h-497.078c-13.939 0-25.283-11.287-25.283-25.283v-75.792c-0-13.939 11.343-25.283 25.283-25.283M678.685 151.53h-572.869c-13.996 0-25.283-11.343-25.283-25.283v-75.792c0-13.996 11.287-25.283 25.283-25.283h572.87c13.939 0 25.283 11.287 25.283 25.283v75.792c-0.001 13.939-11.344 25.283-25.284 25.283M939.872 578.522l-210.22-162.307c-11.569-8.747-10.836-24.493 0-33.861l210.22-162.307c11.682-9.425 33.861-4.12 33.861 23.985v310.56c0 34.030-22.179 33.974-33.861 23.929z"  horiz-adv-x="1024" />

    
    <glyph glyph-name="yuandian" unicode="&#58928;" d="M593.180416 401.092283c0-28.253484-22.89443-51.16531-51.158147-51.16531-28.260647 0-51.172473 22.911826-51.172473 51.16531 0 28.269857 22.911826 51.16531 51.172473 51.16531C570.285986 452.257593 593.180416 429.36214 593.180416 401.092283z"  horiz-adv-x="1024" />

    
    <glyph glyph-name="tongjitubiao" unicode="&#59002;" d="M121.57287 106.775094 121.57287 718.656943 64.140833 718.656943l0-669.303652 28.716019 0 0-0.011256 867.002316 0 0 57.432037L121.57287 106.774071zM679.325913 495.545492 561.148373 495.545492l0-330.234213L679.325913 165.311279 679.325913 495.545492zM844.995093 661.214672 726.817554 661.214672l0-495.903393 118.17754 0L844.995093 661.214672zM513.656733 603.782635 395.479193 603.782635l0-438.471356 118.17754 0L513.656733 603.782635zM345.778234 390.621814 227.600695 390.621814l0-225.310535 118.17754 0L345.778234 390.621814z"  horiz-adv-x="1024" />

    
    <glyph glyph-name="aui-icon-right" unicode="&#58920;" d="M673.714 400.781q-85.098 85.098-341.118 341.118-5.091 5.819-5.091 10.91 0 5.091 5.091 10.183 5.091 5.091 10.183 5.091 5.091 0 10.91-5.091 119.282-119.282 357.119-357.119 5.091-5.091 5.091-10.91 0-5.091-5.091-10.183-0.727-0.727-1.455-1.455-88.734-88.734-355.665-354.937-5.819-5.091-10.91-5.091-5.091 0-10.183 5.091-5.091 5.091-5.091 10.183 0 5.091 5.091 10.91 113.464 113.464 341.118 341.118 5.091 5.091 0 10.183z"  horiz-adv-x="1024" />

    
    <glyph glyph-name="ditu" unicode="&#58913;" d="M946.545954 725.346295c-7.391341 6.209422-17.210987 8.839319-26.731828 7.125281l-237.180887-42.196031-60.578704 20.139689c-17.274432 5.750981-35.678594-3.578502-41.386596-20.72502-5.687536-17.146519 3.578502-35.667338 20.72502-41.365106l68.460208-22.759353c1.589195-0.525979 3.215228-0.915859 4.856611-1.196245l0-265.596054-135.363967 41.666982c-11.523451 3.535523-23.707958-2.939959-27.26497-14.420431-3.535523-11.513218 2.918469-23.728424 14.44192-27.26497l148.187017-45.617967 0-273.828552L391.156748 118.949368l0 123.269511c0 12.045337-9.755178 21.811772-21.811772 21.811772s-21.811772-9.766434-21.811772-21.811772l0-123.82005-218.116693-34.229592 0.001023 616.0948c0 18.073634-14.654768 32.717146-32.717146 32.717146s-32.717146-14.644535-32.717146-32.717146L63.981197 45.912935c0-9.56382 4.175089-18.648732 11.460006-24.868387 7.263427-6.209422 16.912182-8.978489 26.327622-7.454786l271.048229 42.536792 303.979246-85.37239c2.87549-0.809435 5.857405-1.213641 8.839319-1.213641 1.959631 0 3.919263 0.181125 5.857405 0.532119l239.906975 43.655266c15.549138 2.822278 26.859741 16.380062 26.859741 32.185027l0.001023 654.351102C958.261787 709.945537 953.980273 719.12664 946.545954 725.346295zM892.826472 385.534959l-174.49315-30.369681 0 275.004331 174.49315 31.039947L892.826472 385.534959zM718.332299 41.458483l0 269.420149 174.49315 30.367635 0-268.035616L718.332299 41.458483zM209.677487 530.072867c10.692526-21.193695 108.99439-159.743214 138.879024-201.704908 6.134721-8.616238 16.060791-13.738909 26.646893-13.738909 0.021489 0 0.063445 0 0.084934 0 10.629081 0.031722 20.555152 5.207605 26.668383 13.888312 29.77821 42.302455 127.717823 181.852768 137.771807 201.214744 13.20679 25.411763 20.470217 55.008848 20.470217 83.327824 0 102.231359-83.178421 185.399547-185.399547 185.399547-102.221126 0-185.399547-83.168188-185.399547-185.399547 0-28.297486 6.816243-56.201 20.277836-82.954317C209.677487 530.094356 209.677487 530.084123 209.677487 530.072867zM374.799198 733.024162c66.138326 0 119.964232-53.815673 119.964232-119.964232 0-17.754363-4.771677-37.137829-13.057387-53.102429-5.709025-10.564613-55.211463-82.411965-106.652042-155.865907-47.223534 66.808592-100.730169 143.639444-106.949824 155.471934-8.797363 17.530258-13.270235 35.529191-13.270235 53.496401C254.834966 679.208489 308.660872 733.024162 374.799198 733.024162zM374.805338 613.013881m-54.528917 0a53.287 53.287 0 1 0 109.057835 0 53.287 53.287 0 1 0-109.057835 0Z"  horiz-adv-x="1024" />

    
    <glyph glyph-name="023tuceng" unicode="&#59018;" d="M938.633323 325.78411 554.672082 153.199427c-36.761735-15.990183-51.399706-15.990183-85.329837 0L85.366677 325.78411c-20.383048 10.82658-25.879451 50.886971-25.879451 72.745814 25.630777-14.637372 61.674122-30.959106 60.334559-30.131251l392.178726-180.787506 392.19203 180.787506c0.662106 0.165776 35.628888 17.786085 60.320232 30.131251C964.512773 376.160451 957.57959 334.622406 938.633323 325.78411zM938.633323 506.586966 554.672082 333.987956c-36.761735-15.991206-51.399706-15.991206-85.329837 0L85.366677 506.586966c-30.160116 16.004509-29.221706 66.407456 0 85.229127L469.342245 794.546354c33.930131 16.943904 55.155394 17.882276 85.329837 0l383.961241-202.730261C967.854005 575.811584 966.887964 519.774313 938.633323 506.586966zM511.999488 760.134613 119.820762 549.201529l392.178726-165.252695L904.192541 549.201529 511.999488 760.134613zM511.999488 760.134613M511.999488 6.797056l392.19203 180.815135c0.662106 0.165776 35.628888 17.786085 60.320232 30.130228 0-22.369473-6.93216-63.907519-25.879451-72.745814L554.672082-27.615709c-36.761735-15.990183-51.399706-15.990183-85.329837 0L85.366677 144.997628c-20.383048 10.82658-25.879451 50.872644-25.879451 72.745814 25.630777-14.637372 61.674122-30.959106 60.334559-30.130228L511.999488 6.797056z"  horiz-adv-x="1024" />

    
    <glyph glyph-name="daohangchexiao" unicode="&#58907;" d="M619.7248 561.7664 619.7248 810.7008c0 0-577.024-336.6912-577.024-391.0656s577.024-355.5328 577.024-355.5328L619.7248 277.2992c0 0 265.216-3.9936 339.456-320C1036.5952 195.4816 908.8 549.376 619.7248 561.7664zM781.7216 273.408c-83.7632 44.8512-158.3104 46.4896-161.3824 46.592l-43.3152 0.6144 0-43.3152 0-142.6432C366.3872 246.6816 153.9072 369.8688 95.3344 420.352c57.6512 53.6576 270.1312 190.1568 481.6896 315.6992l0-174.2848 0-40.8576 40.8576-1.7408c121.344-5.2224 196.3008-77.6192 237.8752-137.4208 50.8928-73.3184 79.6672-166.8096 82.944-258.7648C891.392 200.9088 831.5904 246.6816 781.7216 273.408z"  horiz-adv-x="1024" />

    
    <glyph glyph-name="wenjianm" unicode="&#59305;" d="M521.441 833.024v-298.337h301.567l-301.567 298.337zM483.893 497.179v335.845h-301.713v-895.014h659.675v559.169h-357.963z"  horiz-adv-x="1024" />

    
    <glyph glyph-name="wenjianjia" unicode="&#59306;" d="M958.473611 51.759083c0 0 0 509.912455 0 560.039109 0 68.029396-61.916165 61.654198-61.916165 61.654198s-369.837186-0.436952-350.275665 0c-21.221324-0.436952-31.699979 11.090593-31.699979 11.090593s-14.758122 25.325805-41.218774 65.408709c-27.770484 42.004673-59.907415 35.106566-59.907415 35.106566L140.9021 785.058259c-75.53944 0-76.41232-72.65781-76.41232-72.65781s0-604.576465 0-656.886855c0-81.040734 61.217247-70.998007 61.217247-70.998007s730.330564 0 776.439718 0C967.643458-15.48339 958.473611 51.759083 958.473611 51.759083L958.473611 51.759083z"  horiz-adv-x="1024" />

    
    <glyph glyph-name="cebianlanshouqi" unicode="&#59311;" d="M730.805378-76.127585 730.805378-76.127585 730.805378-76.127585 730.805378-76.127585zM663.606907 811.054329l67.299779 0 0-87.195921L443.874413 406.077831 730.906685 83.747635l0-85.977163-68.416206 0-375.174752 406.03255L663.606907 811.054329z"  horiz-adv-x="1024" />

    
    <glyph glyph-name="cebianlanzhankai" unicode="&#59312;" d="M730.906685 403.804045l-375.174752-406.03255-68.416206 0L287.315728 83.747635l287.032272 322.329173L287.315728 723.859431l0 87.195921 67.299779 0L730.906685 403.804045z"  horiz-adv-x="1024" />

    
    <glyph glyph-name="shuju1" unicode="&#58908;" d="M1189.611371-128 1084.202768-128 783.035333-128 722.801845-128 481.867897-128 421.63441-128 120.466974-128 15.058372-128C6.746151-128 0-121.253849 0-112.941628L0-82.824884C0-74.512664 6.746151-67.766513 15.058372-67.766513L120.466974-67.766513 120.466974 474.364988C120.466974 507.613873 147.421459 534.598475 180.700461 534.598475L421.63441 534.598475 421.63441 655.035333C421.63441 688.314335 448.588895 715.26882 481.867897 715.26882L722.801845 715.26882 722.801845 835.765911C722.801845 869.014796 749.756331 895.999398 783.035333 895.999398L1023.969281 895.999398C1057.218165 895.999398 1084.202768 869.014796 1084.202768 835.765911L1084.202768-67.766513 1189.611371-67.766513C1197.923591-67.766513 1204.669742-74.512664 1204.669742-82.824884L1204.669742-112.941628C1204.669742-121.253849 1197.923591-128 1189.611371-128ZM421.63441 474.364988 180.700461 474.364988 180.700461-67.766513 421.63441-67.766513 421.63441 474.364988ZM722.801845 655.065449 481.867897 655.065449 481.867897-67.766513 722.801845-67.766513 722.801845 655.065449ZM1023.969281 835.735794 783.035333 835.735794 783.035333-67.766513 1023.969281-67.766513 1023.969281 835.735794Z"  horiz-adv-x="1205" />

    
    <glyph glyph-name="xinghao" unicode="&#58956;" d="M876.8 236.8 620.8 384l256 147.2c25.6 12.8 38.4 51.2 19.2 76.8-12.8 25.6-51.2 38.4-76.8 19.2l-256-147.2L563.2 774.4C569.6 806.4 544 832 512 832S454.4 806.4 454.4 774.4l0-294.4-256 147.2C179.2 646.4 140.8 633.6 128 608c-12.8-25.6-6.4-64 19.2-76.8l256-147.2-256-147.2c-25.6-12.8-38.4-51.2-19.2-76.8 12.8-19.2 32-25.6 51.2-25.6 6.4 0 19.2 0 25.6 6.4l256 147.2 0-294.4C454.4-38.4 480-64 512-64s57.6 25.6 57.6 57.6L569.6 288l256-147.2c6.4-6.4 19.2-6.4 25.6-6.4 19.2 0 38.4 12.8 51.2 25.6C908.8 185.6 902.4 224 876.8 236.8z"  horiz-adv-x="1024" />

    
    <glyph glyph-name="queren" unicode="&#59007;" d="M949.01468 681.229518c-10.865465 10.865465-28.467355 10.865465-39.333844 0L373.977995 146.640034 114.343723 406.328541c-10.865465 10.865465-28.467355 10.865465-39.333844 0s-10.865465-28.467355 0-39.333844L349.802386 92.148979c1.113357-1.847068 1.983167-3.802606 3.559059-5.378497 5.432733-5.432733 12.576433-8.149611 19.693528-8.149611s14.207583 2.716878 19.639293 8.149611l556.267203 555.125193C959.853539 652.707928 959.853539 670.364053 949.01468 681.229518z"  horiz-adv-x="1024" />

    
    <glyph glyph-name="shanchu" unicode="&#58909;" d="M830.061986 542.182672l-29.966499-567.691393c-1.102101-20.853957-18.330484-37.20025-39.21821-37.20025L263.122723-62.708971c-20.887726 0-38.116109 16.346293-39.21821 37.20025l-29.966499 567.691393c-1.140986 21.659299 15.489786 40.144302 37.148062 41.289382 21.759583 1.049912 40.148395-15.493879 41.289382-37.148062l28.000728-530.491143 423.248653 0 28.000728 530.491143c1.150196 21.663392 19.760043 38.130436 41.289382 37.148062C814.5722 582.325951 831.202972 563.841971 830.061986 542.182672zM934.164972 673.62533c0-21.687952-17.58347-39.271422-39.271422-39.271422L129.10645 634.353908c-21.687952 0-39.271422 17.58347-39.271422 39.271422s17.58347 39.271422 39.271422 39.271422l215.991286 0L345.097736 801.256172c0 18.97926 12.656251 29.453822 31.634488 29.453822l270.526343 0c18.97926 0 31.643698-10.474562 31.643698-29.453822l0-88.360444 215.991286 0C916.581502 712.895729 934.164972 695.312258 934.164972 673.62533zM413.821957 712.895729l196.356087 0L610.178043 761.98475 413.821957 761.98475 413.821957 712.895729zM430.287977 74.739471c0.274246 0 0.546446 0 0.824785 0 18.974144 0 33.988092 18.252713 33.542954 37.225833l-9.985422 424.467411c-0.446162 18.975167-16.005532 34.476209-35.162848 34.0587-18.974144-0.446162-33.988092-15.930831-33.542954-34.904974l9.985422-425.364851C396.390959 91.525786 411.683247 74.739471 430.287977 74.739471zM592.20981 74.739471c18.600637 0 33.898041 15.779382 34.339086 34.475186l9.985422 423.901523c0.446162 18.974144-14.56881 34.94693-33.542954 35.393091-19.270902 0.278339-34.717709-14.45727-35.162848-33.42732l-9.985422-424.308799c-0.446162-18.975167 14.56881-36.033681 33.542954-36.033681C591.664388 74.739471 591.93761 74.739471 592.20981 74.739471z"  horiz-adv-x="1024" />

    
    <glyph glyph-name="share" unicode="&#59038;" d="M768.704 192.384c-35.648 0-67.904-14.72-91.136-38.304l-309.152 171.712c9.056 17.568 14.688 37.184 14.688 58.272 0 12.576-2.368 24.48-5.76 35.936l304.608 189.152c22.688-20.416 52.384-33.184 85.216-33.184 70.592 0 128 57.408 128 128s-57.408 128-128 128-128-57.408-128-128c0-14.56 2.976-28.352 7.456-41.408l-301.824-187.392c-23.136 22.784-54.784 36.928-89.728 36.928-70.592 0-128-57.408-128-128 0-70.592 57.408-128 128-128 25.664 0 49.504 7.744 69.568 20.8l321.216-178.4c-3.04-10.944-5.184-22.208-5.184-34.08 0-70.592 57.408-128 128-128s128 57.408 128 128S839.328 192.384 768.704 192.384zM767.2 767.968c35.296 0 64-28.704 64-64s-28.704-64-64-64-64 28.704-64 64S731.904 767.968 767.2 767.968zM191.136 384.064c0 35.296 28.704 64 64 64s64-28.704 64-64c0-35.296-28.704-64-64-64S191.136 348.768 191.136 384.064zM768.704 0.384c-35.296 0-64 28.704-64 64s28.704 64 64 64 64-28.704 64-64S804 0.384 768.704 0.384z"  horiz-adv-x="1024" />

    
    <glyph glyph-name="comment-w" unicode="&#58924;" d="M1031.975 693.746l-530.511-551.726h-192.871v192.871l532.439 549.798c15.083 15.083 39.5 15.083 54.582 0l136.36-136.36c15.083-15.083 15.083-39.5 0-54.582zM868.305 802.872l-482.563-506.556v-77.148h77.148l487.269 501.85-81.854 81.854zM540.039 797.819h-462.89v-848.632h848.632v462.89c0 27.966 8.178 33.752 36.144 33.752 28.005 0 41.004-5.786 41.004-33.752v-462.89c0-37.263-39.886-77.148-77.148-77.148h-848.632c-37.263 0-77.148 39.886-77.148 77.148v848.632c0 37.301 39.886 77.148 77.148 77.148h462.89c27.966 0 33.752-13.038 33.752-41.004 0-27.928-5.786-36.144-33.752-36.144z"  horiz-adv-x="1045" />

    
    <glyph glyph-name="download" unicode="&#58896;" d="M483.2 73.6v256c0 12.8 12.8 25.6 25.6 25.6s25.6-12.8 25.6-25.6v-256l51.2 38.4c12.8 6.4 25.6 6.4 38.4-6.4 12.8-19.2 6.4-32-6.4-38.4l-96-70.4c0-6.4-6.4-6.4-12.8-6.4s-12.8 0-12.8 6.4l-96 70.4c-12.8 6.4-12.8 25.6-6.4 38.4 6.4 12.8 25.6 12.8 38.4 6.4l51.2-38.4zM278.4 112h-19.2c-115.2 0-204.8 102.4-204.8 224 0 128 96 230.4 211.2 224 38.4 128 147.2 217.6 268.8 217.6 134.4 0 249.6-102.4 281.6-249.6 89.6-19.2 153.6-102.4 153.6-204.8 0-115.2-83.2-211.2-185.6-211.2-32 0-96 0-166.4 57.6-12.8 12.8-12.8 32 0 38.4 12.8 12.8 25.6 12.8 38.4 0 51.2-51.2 96-44.8 121.6-44.8h6.4c76.8 0 134.4 70.4 134.4 160 0 83.2-57.6 153.6-128 160-12.8 0-19.2 12.8-25.6 19.2-19.2 128-115.2 224-230.4 224-102.4 0-198.4-83.2-224-198.4 0-12.8-12.8-19.2-32-19.2h-25.6c-83.2 0-147.2-76.8-147.2-172.8s64-172.8 147.2-172.8h12.8c25.6 0 57.6 0 102.4 44.8 12.8 12.8 25.6 12.8 38.4 0 12.8-12.8 12.8-25.6 0-38.4-51.2-51.2-96-57.6-128-57.6z"  horiz-adv-x="1024" />

    
    <glyph glyph-name="cxdd" unicode="&#58925;" d="M285.867 396.8c-8.533 17.067-25.6 21.333-42.667 12.8s-21.333-25.6-12.8-42.667c25.6-51.2 64-98.133 110.933-128 4.267-4.267 12.8-4.267 17.067-4.267 8.533 0 21.333 4.267 25.6 12.8 8.533 12.8 8.533 34.133-8.533 42.667-38.4 29.867-68.267 64-89.6 106.667zM942.933-8.533l-174.933 170.667c68.267 72.533 106.667 166.4 106.667 273.067 0 72.533-21.333 145.067-59.733 209.067-8.533 17.067-29.867 21.333-42.667 8.533-17.067-8.533-21.333-29.867-8.533-42.667 34.133-51.2 51.2-115.2 51.2-174.933 0-183.467-149.333-332.8-332.8-332.8s-332.8 149.333-332.8 332.8c-4.267 183.467 145.067 332.8 328.533 332.8 17.067 0 34.133 12.8 34.133 34.133 0 17.067-12.8 34.133-34.133 34.133-217.6 0-396.8-179.2-396.8-396.8 0-217.6 179.2-396.8 396.8-396.8 89.6 0 174.933 29.867 243.2 85.333l174.933-174.933c4.267-4.267 12.8-8.533 21.333-8.533s17.067 4.267 21.333 8.533c17.067 4.267 17.067 25.6 4.267 38.4z"  horiz-adv-x="1024" />

    
    <glyph glyph-name="saomiaoerweima" unicode="&#58988;" d="M64.383234 831.616766 120.335329 831.616766 120.335329 607.808383 64.383234 607.808383 64.383234 831.616766ZM120.335329 831.616766 288.191617 831.616766 288.191617 775.664671 120.335329 775.664671 120.335329 831.616766ZM959.616766 831.616766 903.664671 831.616766 903.664671 607.808383 959.616766 607.808383 959.616766 831.616766ZM903.664671 831.616766 735.808383 831.616766 735.808383 775.664671 903.664671 775.664671 903.664671 831.616766ZM64.383234-63.616766 120.335329-63.616766 120.335329 160.191617 64.383234 160.191617 64.383234-63.616766ZM120.335329-63.616766 288.191617-63.616766 288.191617-7.664671 120.335329-7.664671 120.335329-63.616766ZM959.616766-63.616766 903.664671-63.616766 903.664671 160.191617 959.616766 160.191617 959.616766-63.616766ZM903.664671-63.616766 735.808383-63.616766 735.808383-7.664671 903.664671-7.664671 903.664671-63.616766ZM120.335329 411.976048 903.664671 411.976048 903.664671 356.023952 120.335329 356.023952 120.335329 411.976048Z"  horiz-adv-x="1024" />

    
    <glyph glyph-name="jia" unicode="&#59210;" d="M874.971429 746.057143C776.228571 841.142857 648.228571 896 512.914286 896S245.942857 841.142857 150.857143 746.057143c-201.142857-201.142857-201.142857-522.971429 0-724.114286C245.942857-73.142857 377.6-128 512.914286-128s266.971429 54.857143 362.057143 149.942857c201.142857 201.142857 201.142857 522.971429 0 724.114286m-51.2-672.914286C739.657143-10.971429 629.942857-54.857143 512.914286-54.857143s-226.742857 43.885714-310.857143 128c-171.885714 171.885714-171.885714 449.828571 0 621.714286C286.171429 778.971429 395.885714 822.857143 512.914286 822.857143s226.742857-43.885714 310.857143-128c171.885714-171.885714 171.885714-449.828571 0-621.714286M549.485714 420.571429V607.085714c0 21.942857-14.628571 36.571429-36.571428 36.571429s-36.571429-14.628571-36.571429-36.571429V420.571429H289.828571c-21.942857 0-36.571429-14.628571-36.571428-36.571429 0-10.971429 3.657143-18.285714 10.971428-25.6s14.628571-10.971429 25.6-10.971429H476.342857v-186.514285c0-10.971429 3.657143-18.285714 10.971429-25.6 7.314286-7.314286 14.628571-10.971429 25.6-10.971429 21.942857 0 36.571429 14.628571 36.571428 36.571429V347.428571h186.514286c21.942857 0 36.571429 14.628571 36.571429 36.571429s-14.628571 36.571429-36.571429 36.571429H549.485714z"  horiz-adv-x="1025" />

    
    <glyph glyph-name="shangchuan1" unicode="&#58930;" d="M741.293764 368.652484M895.794308 192.013815c-0.120755 0-3.722929 7.00554-8.003582 15.566503l-112.241509 224.461766c-4.281676 8.561986-15.616246 15.564456-25.188615 15.561386l-93.023089-0.030699c-9.57237-0.00307-17.405053-7.837487-17.405053-17.410497l0-29.574513c0-9.571987 7.83166-17.409474 17.405053-17.416637l29.574672-0.019443c9.57237-0.007163 20.878286-7.031123 25.124145-15.610505l79.554845-160.755966c4.244835-8.579382-0.112568-15.598225-9.685961-15.598225L655.550752 191.186985c-9.57237 0-17.405053-7.831347-17.405053-17.404357l0-91.05258c0-9.571987-7.83166-17.404357-17.405053-17.404357L401.767317 65.325691c-9.57237 0-17.405053 7.831347-17.405053 17.404357l0 91.05258c0 9.571987-7.83166 17.404357-17.405053 17.404357L238.042341 191.186985c-9.57237 0-13.814135 6.960515-9.425008 15.467242l83.198977 161.273758c4.389127 8.506727 15.811705 15.462126 25.384074 15.455986l28.808187-0.018419c9.57237-0.007163 17.405053 7.82009 17.405053 17.392077l0 29.317664c0 9.571987-7.83166 17.401287-17.405053 17.398217l-92.596354-0.030699c-9.57237-0.00307-20.921266-7.004517-25.220339-15.557293L135.393668 207.419659c-4.298049-8.552776-7.713975-15.551153-7.591174-15.551153 0.123825 0 0.224113-7.831347 0.224113-17.404357l0-158.054443c0-9.571987 7.83166-17.404357 17.405053-17.404357l733.178638 0c9.57237 0 17.405053 7.831347 17.405053 17.404357L896.01535 174.610481C896.014327 184.182468 895.916086 192.013815 895.794308 192.013815zM352.516789 524.86805l95.516981 0 0-268.105688 127.918132 0 0 268.105688 100.632683 0c9.57237 0 12.210553 5.861486 5.86172 13.025639L523.92811 716.760091c-6.348833 7.164152-16.668244 7.102754-22.930093-0.137123L346.498497 538.030811C340.235625 530.790934 342.943396 524.86805 352.516789 524.86805z"  horiz-adv-x="1024" />

    
    <glyph glyph-name="xiazai1" unicode="&#58938;" d="M820.156894 418.238802l-205.438952 0L614.717941 829.115684l-205.438952 0 0-410.877905L203.842083 418.237779l308.157405-273.915533L820.156894 418.238802zM203.842083-61.115684l616.313787 0 0 68.477604L203.842083 7.361921 203.842083-61.115684z"  horiz-adv-x="1024" />

    
    <glyph glyph-name="fafangzhengshu" unicode="&#58954;" d="M873.984-117.76h-723.456c-36.864 0-66.56 29.696-66.56 66.56V749.568c0 36.864 29.696 66.56 66.56 66.56h34.304c8.704 0 15.36-6.656 15.36-15.36s-6.656-15.36-15.36-15.36h-34.304c-19.968 0-35.84-15.872-35.84-35.84v-800.768c0-19.968 15.872-35.84 35.84-35.84h723.456c19.968 0 35.84 15.872 35.84 35.84V749.568c0 19.968-15.872 35.84-35.84 35.84h-43.008c-8.704 0-15.36 6.656-15.36 15.36s6.656 15.36 15.36 15.36h43.008c36.864 0 66.56-29.696 66.56-66.56v-800.768c0-36.864-30.208-66.56-66.56-66.56zM693.76 715.776h-363.52c-36.864 0-66.56 29.696-66.56 66.56v36.864c0 36.864 29.696 66.56 66.56 66.56h363.52c36.864 0 66.56-29.696 66.56-66.56v-36.864c0-36.864-29.696-66.56-66.56-66.56z m-363.52 139.264c-19.968 0-35.84-15.872-35.84-35.84v-36.864c0-19.968 15.872-35.84 35.84-35.84h363.52c19.968 0 35.84 15.872 35.84 35.84v36.864c0 19.968-15.872 35.84-35.84 35.84h-363.52zM759.296 545.28h-494.592c-8.704 0-15.36 6.656-15.36 15.36s6.656 15.36 15.36 15.36h494.592c8.704 0 15.36-6.656 15.36-15.36s-6.656-15.36-15.36-15.36zM759.296 297.472h-494.592c-8.704 0-15.36 6.656-15.36 15.36s6.656 15.36 15.36 15.36h494.592c8.704 0 15.36-6.656 15.36-15.36s-6.656-15.36-15.36-15.36zM612.864 50.176h-333.824c-8.704 0-15.36 6.656-15.36 15.36s6.656 15.36 15.36 15.36h333.824c8.704 0 15.36-6.656 15.36-15.36s-6.656-15.36-15.36-15.36z"  horiz-adv-x="1024" />

    
    <glyph glyph-name="search" unicode="&#58942;" d="M935.12-72a32 32 0 0 0-22.64 9.36L684.32 166a378.08 378.08 0 0 0-246.08-90.16 382.08 382.08 0 1 0 381.36 382.08 385.04 385.04 0 0 0-9.44-84.88 32 32 0 0 0-62.4 14.16 317.36 317.36 0 1 1-309.52-247.36 314.88 314.88 0 0 1 224 93.12 32 32 0 0 0 45.28 0l249.84-250.32a32 32 0 0 0-22.24-54.64zM736.88 288m-32 0a32 32 0 1 1 64 0 32 32 0 1 1-64 0Z"  horiz-adv-x="1024" />

    
    <glyph glyph-name="biaoge" unicode="&#58899;" d="M64 800v-832h896v832H64z m608-208H896V448h-224V592z m-320-560H128v147.2h224v-147.2z m0 211.2H128V384h224v-140.8z m0 204.8H128V592h224V448z m256-416h-192v147.2h192v-147.2z m0 211.2h-192V384h192v-140.8z m0 204.8h-192V592h192V448z m288-416h-224v147.2H896v-147.2z m0 211.2h-224V384H896v-140.8z"  horiz-adv-x="1024" />

    
    <glyph glyph-name="ziyuan" unicode="&#58914;" d="M476.978805 419.021195H184.971098A185.464355 185.464355 0 0 0 0 603.992293V711.028902A185.464355 185.464355 0 0 0 184.971098 896h107.036609a185.464355 185.464355 0 0 0 184.971098-184.971098zM184.971098 823.984586a113.44894 113.44894 0 0 1-112.955684-112.955684v-107.036609a113.44894 113.44894 0 0 1 112.955684-112.955684h219.992293V711.028902a113.44894 113.44894 0 0 1-112.955684 112.955684zM843.468208 419.021195h-291.514451V711.028902A185.464355 185.464355 0 0 0 736.924855 896h106.543353a184.971098 184.971098 0 0 0 184.971098-184.971098v-107.036609a184.971098 184.971098 0 0 0-184.971098-184.971098z m-219.992293 72.015414h219.992293a113.44894 113.44894 0 0 1 113.44894 112.955684V711.028902a113.44894 113.44894 0 0 1-113.44894 112.955684h-106.543353a113.44894 113.44894 0 0 1-112.955684-112.955684zM843.468208-128h-106.543353A185.464355 185.464355 0 0 0 551.953757 57.464355v291.021194h291.514451a184.971098 184.971098 0 0 0 184.971098-184.971098V57.464355a184.971098 184.971098 0 0 0-184.971098-184.971099z m-219.992293 404.963391V57.464355a113.44894 113.44894 0 0 1 112.955684-112.955684h107.036609A112.955684 112.955684 0 0 1 956.917148 57.464355v106.050096a113.44894 113.44894 0 0 1-112.955684 112.955684zM292.007707-128H184.971098A185.464355 185.464355 0 0 0 0 57.464355v106.050096a185.464355 185.464355 0 0 0 184.971098 184.971098h292.007707V57.464355a185.464355 185.464355 0 0 0-184.971098-185.464355z m-107.036609 404.963391a113.44894 113.44894 0 0 1-112.955684-112.955684V57.464355a113.44894 113.44894 0 0 1 112.955684-112.955684h107.036609A113.44894 113.44894 0 0 1 404.963391 57.464355v219.499036z"  horiz-adv-x="1028" />

    
    <glyph glyph-name="bottom" unicode="&#58996;" d="M511.936 191.96799999999996a31.584 31.584 0 0 0-22.4 9.28L127.2 563.52a31.808 31.808 0 0 0 0.128 45.12 31.904 31.904 0 0 0 45.12 0.128L512 269.28l339.552 339.52a31.808 31.808 0 0 0 45.12-0.128 31.904 31.904 0 0 0 0.128-45.12L534.464 201.216a31.616 31.616 0 0 0-22.4-9.28h-0.128z"  horiz-adv-x="1024" />

    
    <glyph glyph-name="top" unicode="&#58998;" d="M511.936 618.0799999999999a31.584 31.584 0 0 1-22.4-9.28L127.2 246.46400000000006a31.808 31.808 0 0 1 0.128-45.12 31.904 31.904 0 0 1 45.12-0.128L512 540.8l339.552-339.52a31.808 31.808 0 0 1 45.12 0.128 31.904 31.904 0 0 1 0.128 45.12L534.464 608.768a31.616 31.616 0 0 1-22.4 9.312l-0.128-0.032z"  horiz-adv-x="1024" />

    
    <glyph glyph-name="panel" unicode="&#58948;" d="M960 282.6v-80h-40v80c0 55.1-10.8 108.5-32 158.8-20.5 48.6-50 92.2-87.5 129.7s-81.1 66.9-129.7 87.5c-50.3 21.3-103.7 32-158.8 32s-108.5-10.8-158.8-32c-48.6-20.5-92.2-50-129.7-87.5s-66.9-81.1-87.5-129.7c-21.3-50.3-32-103.7-32-158.8v-80h-40v80c0 247.4 200.6 448 448 448s448-200.6 448-448zM492 622.4h40v60h-40v-60zM215.1 551.2l42.4-42.4 28.3 28.3-42.4 42.4-28.3-28.3zM112.1 262.6h60v40h-60v-40zM851.9 302.6v-40h60v40h-60zM738.2 537l28.3-28.3 42.4 42.4-28.3 28.3-42.4-42.4zM514.3 207.4c-11 0-20-9-20-20s9-20 20-20 20 9 20 20-9 20-20 20M514.3 247.4c33.1 0 60-26.9 60-60s-26.9-60-60-60-60 26.9-60 60 26.9 60 60 60zM442.9 325.5l54.2-154.2 32.7-13.3 7.9 34.3-94.8 133.2M311.3 579.3l269.4-378.4-22.4-97.6-93 37.8-154 438.2zM792 77.4h-560v-40h560v40z"  horiz-adv-x="1024" />

    
    <glyph glyph-name="gongzuohuanjing" unicode="&#58904;" d="M702-31.8H98.3V534.8c0.3 1.6 0.8 3.2 0.9 4.9 1.6 25.9 6.5 51.2 14.3 75.8 22.1 69.4 61.9 125.8 123.6 165.6 45.3 29.2 95.4 43.7 148.7 48.6 7.6 0.7 15.3 1.4 22.9 2.1h551.5v-527.4c-0.3-2.1-0.8-4.2-0.9-6.4-1.8-39.2-8.4-77.5-20.4-114.9-18.9-58.8-48.6-110.9-94.9-152.6-33.4-30.1-71.8-50.6-116.3-58.7-8.5-1.5-17.1-2.4-25.7-3.6z m91.8 682.9c-85-37-162.5-85.7-234.8-144.3 27.6-15.1 48.8-36.1 67.7-59.6 18.8-23.4 34.6-48.7 49.6-76.4-2.9 1.7-4.4 2.6-5.9 3.6-31.1 20.1-62.9 39-96.5 54.5-22.3 10.4-45.2 19.4-69.7 23.2-4.2 0.7-7.2 0-10.2-3.2-20.3-21.9-41.6-42.8-61-65.4-82.6-95.8-143.1-204.3-183-324.3-0.5-1.7-0.9-3.4-1.4-5.6h442c17.8 0 34.9 3.6 51.2 10.7 35 15.1 61.2 40.6 81.9 71.9 34.7 52.6 50.5 111.4 51 173.6 1.1 144.1 0.4 288.2 0.4 432.2 0 1.4-0.2 2.9-0.4 4.5H428.3c-24.3 0-48.4-2-72.3-7.2-95.4-20.7-164.5-100.1-171.3-197.3-1.3-18.5-1.1-37.2-1.2-55.8-0.1-119.6 0-239.2 0-358.8v-5.4c2 1.5 2.8 3 3.6 4.4 22.1 37.5 43.5 75.4 66.5 112.4s49 72.1 76.3 106c2.3 2.8 2.6 4.9 0.4 7.8-3.5 4.5-6.5 9.4-10 13.8-29.9 38.2-68.2 65.4-111.5 86-5.8 2.8-11.7 5.3-17.9 8.1 0.7 0.4 0.9 0.6 1.2 0.6 32 2.7 63.9 2.2 95.3-5 35.5-8.2 67.3-23.2 91.7-51.3 0.3-0.3 0.8-0.4 1.4-0.7 1.8 1.9 3.5 3.7 5.2 5.5 38.3 41.4 79.6 79.6 124.7 113.6 70.8 53.3 147.8 94 233.8 116.5 16.3 4.4 33 7.7 49.6 11.4z"  horiz-adv-x="1024" />

    
    <glyph glyph-name="zhongguoditu" unicode="&#58926;" d="M957.719 620.198c-5.86 5.86-37.112-27.346-50.785-25.393-13.673 1.953 3.907 28.323-31.253 32.229-12.703 1.411-19.03 1.93-21.932 2.017-3.349 7.781-24.748 56.737-33.737 58.535-9.766 1.953-15.626 0-15.626 0s-22.463 24.416-57.622-14.65c0 0 24.416-2.93 10.743-18.556s-13.673-41.019-33.206-43.949c-19.533-2.93-16.603 6.836-16.603 6.836s-13.673-39.066-8.79-44.926c4.883-5.86 20.51 5.86 21.486 0 23.439 15.626 46.879-14.65 34.183-20.51-12.696-5.86-24.817 0-24.817 0s-19.132-10.743-20.109-13.673c-0.977-2.93-8.79-25.393-22.463-12.696l-15.626-17.58s-17.58 2.93-21.486 7.813c-3.907 4.883-20.51-17.58-4.883-26.369 5.398-6.387-6.579-10.743-6.579-10.743s-9.047-13.673-22.72-17.58-33.206 5.86-41.996 0-27.346-13.673-26.369-16.603c0.977-2.93-35.159 16.603-45.902 16.603-10.743 0 0.977 13.673-52.739 13.673-8.85 0.072-28.323 6.836-28.323 6.836l-13.673 26.369-20.51 19.533-42.972 12.696 4.883 18.406 2.93 17.729s-7.813 11.72-7.813 16.603c0 4.883-11.72 10.743-13.673 13.673-1.953 2.93-11.72 12.696-9.766 19.533 1.953 6.837-4.883 10.743-4.883 10.743s-14.65-14.65-17.58-14.65-18.556-11.72-17.58-20.509-29.299-4.883-33.206 4.883c-3.907 9.766-22.463-26.369-20.51-29.299 1.953-2.93-27.346-5.86-31.253-3.907-3.907 1.953 1.953-18.556 0-27.346s-14.65-17.58-14.65-17.58v-10.743s-46.879-5.86-48.832-9.766c-1.953-3.907-7.813 2.93-18.556-6.837-10.743-9.766-10.743 11.72-10.743 11.72s-29.299 3.907-33.206-4.883c-3.907-8.79-13.673-23.439 4.883-33.206 3.024-15.917-3.907-20.51-3.907-20.51s-6.293 6.837-7.053 0c-0.76-6.837 12.913-17.58 13.89-21.486 0.977-3.907 1.953-24.416 25.393-34.183 0-6.837-2.93-17.58-2.93-17.58s17.58-5.86 15.626-10.743c-1.953-4.883-8.79-1.953-10.743 0-1.953 1.953 8.79-39.066-0.977-40.042-9.766-0.977-5.86 9.766-5.86 9.766s-4.883-10.743-4.883-17.58c0-6.836-3.907-17.58 10.743-21.486 5.922-3.854 4.883-27.346 22.463-24.416 9.497 1.583 9.586 3.449 8.74 4.37 0.27-0.13 0.607-0.283 1.026-0.463 6.837-2.93 12.696-31.253 21.486-31.253s11.72-24.416 27.346-30.276c15.626-5.86 21.486-17.58 35.159-18.556 13.673-0.977 10.743 0 18.556-11.72 7.813-11.72 10.743 18.556 22.463 11.72 11.72-6.837 24.416-6.43 30.276-14.446 5.86-8.016 2.93-17.783 2.93-17.783s11.72-8.79 30.276-4.883c18.556 3.907 35.159 18.556 41.019 18.556s24.416-7.813 27.346-8.79c2.93-0.977 4.883 14.65 7.813 12.696 2.93-1.953 29.305-38.089 12.211-56.645-17.094-18.556-48.347-41.019-4.398-38.089 5.86-9.766 4.398-19.533 4.398-19.533h8.299l-8.299-19.533h11.229l11.72-17.58 8.79 4.883 5.86-11.72h10.743l-2.93 27.346 9.766-3.906s3.907 9.766 8.79 9.766 3.907-8.79 8.79-8.79c4.883 0 13.673 5.86 13.673 5.86s10.743-3.907 14.65-3.907 8.79 10.743 15.626 10.743 19.533-2.93 22.463-4.883c2.93-1.953 16.603-38.089 40.042-32.229 23.439 5.86 13.673 8.79 21.486-6.836s9.766-26.369-1.953-25.393c-11.72 0.977-28.323-28.323-9.766-31.253 18.556-2.93 29.299 19.533 37.112 25.393 7.813 5.86-9.766 10.743-9.766 18.556 0 7.813-4.883 16.603-4.883 16.603s49.809 8.79 52.739 15.626 15.626 15.626 15.626 15.626 35.159-3.907 44.926 2.93c9.766 6.837 32.229 21.486 42.972 36.136 10.743 14.65 15.626 44.926 15.626 44.926v4.883s5.86 2.93 17.58 15.626c11.72 12.696 15.626 30.276 15.626 30.276V211.96s-7.676-0.646-21.486 5.86c9.766 9.766 28.323 3.907 15.626 16.603-12.696 12.696 2.93 10.743 2.93 10.743s-28.323 56.645-42.972 58.599c-14.65 1.953 36.136 53.715 36.136 60.552s-73.248 9.766-73.248 9.766l-10.743 18.556s19.533 4.883 35.159 23.439c15.626 18.556 41.996 40.042 30.276-6.836s10.743 11.72 40.042 13.673c3.907 7.813 9.766 16.603 19.533 20.51 9.766 3.907 12.696 21.486 12.696 21.486h24.416l-7.813 10.743s22.463 9.766 23.439 27.346c9.766-4.883 9.766-4.883 16.603 6.836 6.837 11.72 4.883 26.369 0 31.253-4.883 4.883 12.696 16.603 16.603 16.603s17.581 56.646 11.721 62.506zM838.569 114.296s-17.58 0.977-24.416-25.393c-3.907-10.743-11.72-25.393 0-31.253 11.72-5.86 13.02-8.79 13.02-8.79s13.349 18.556 11.396 30.764c-1.954 12.209 12.696 24.906 0 34.672z"  horiz-adv-x="1024" />

    
    <glyph glyph-name="qiyexinxi" unicode="&#58910;" d="M591.762 821.502c-4.253 6.559-5.616 10.998-5.616 10.998l2.028 1.863s3.938-1.632 10.835-4.451l11.791-4.695c4.485-1.619 9.379-3.518 14.633-4.8 2.575-0.791 5.207-1.597 7.922-1.899 1.363-0.187 2.679-0.56 4.031-0.804 1.341-0.093 2.679-0.14 4.031-0.314 5.418-0.722 10.404-0.129 15.857 0.151 2.528 0.932 5.347 1.2 8.097 2.377 2.528 1.491 5.825 2.353 8.167 4.265 1.247 0.863 2.528 1.747 3.915 2.622 1.434 0.804 2.959 1.445 4.485 3.1l9.647 8.097c0.093 0.129-0.571-0.827-0.244-0.385l0.069 0.069 0.163 0.14 2.224 1.981 2.528 2.225 4.777 4.521c3.006 3.1 6.781 5.511 9.81 8.494 2.982 3.075 6.991 4.974 10.172 7.957 3.413 2.691 7.397 4.707 11.244 7.305 8.074 3.809 17.523 6.629 25.97 5.441 2.121-0.222 4.182-0.56 6.21-0.932 1.957-0.547 3.798-1.212 5.616-1.899 3.728-1.223 6.944-2.994 9.962-4.73 13.274-7.799 23.5-19.559 29.186-33.638-3.554 7.833-2.307 4.955-1.422 2.986l1.119-3.122-2.028-1.888s-4.347 1.468-11.010 4.253c-3.25 1.305-7.188 2.924-11.721 4.754-4.369 1.794-9.169 3.775-14.25 5.488-2.528 0.932-5.138 1.899-7.782 2.54-1.341 0.326-2.668 0.851-4.009 1.247-3.406 0.683-6.429 1.762-9.231 3.21-0.241-0.379-5.881 1.369-12.848 2.102-3.204-0.431-7.013-0.291-10.357-1.678-3.204-1.632-6.875-2.878-9.45-5.767-2.598-2.784-5.557-5.22-7.375-8.773l-2.644-5.29-1.212-2.668-0.594-1.316-0.291-0.676-0.14-0.314-0.069-0.163-0.047-0.093c0.269 0.385-0.407-0.618-0.361-0.56l-5.207-11.475c-1.701-3.693-5.616-7.865-8.807-11.547-3.25-3.996-7.596-6.303-11.465-9.437-4.055-2.844-8.982-4.485-13.515-6.548-9.623-2.75-19.678-3.239-28.148-0.978-6.714 1.383-12.652 3.981-17.851 7.571-3.276 0.665-11.154 6.503-17.562 13.683 2.677-4.53-6.209 5.334-12.196 16.938 3.979-8.682-1.811 1.168-4.965 12.133zM1007.406 170.859v-236.198h-990.811v236.198h67.493v265.348l190.189 133.438v-133.438l190.164 133.438v-133.438l190.189 133.438v-262.284h65.629l35.639 463.959h108.772l31.201-463.959h73.179v-136.513h38.354zM327.183 272.863h-149.526v-138.039h149.526v138.039zM584.841 272.863h-149.526v-138.039h149.526v138.039zM845.739 272.863h-149.526v-138.039h149.526v138.039z"  horiz-adv-x="1024" />

    
    <glyph glyph-name="rongliang" unicode="&#58940;" d="M832.2 896h-704c-35.2 0-64-28.8-64-64v-896c0-35.2 28.8-64 64-64h704c35.2 0 64 28.8 64 64V832c0 35.2-28.8 64-64 64z m0-64v-465c-20-15.1-72.6-47-160-47-46.1 0-70.3 19.8-103.8 47.1-44.2 36-99.1 80.9-216.2 80.9-110.9 0-181.2-20.3-224-39.7V832h704z m-704-896V336c22.4 14.6 88.1 48 224 48 94.3 0 133.8-32.3 175.7-66.4C565 287.3 603.3 256 672.2 256c70.9 0 124.2 18.1 160 36.4V-64h-704z"  horiz-adv-x="1024" />

    
    <glyph glyph-name="wenjianjia1" unicode="&#59004;" d="M837.2527402666667 58.747259733333294c0-29.127111466666666-24.272593066666666-53.399703466666665-53.399703466666665-53.399704533333335H113.92948160000003L208.59259306666672 447.1087402666667c0 29.127111466666666 24.272593066666666 53.399703466666665 53.399703466666665 53.399704533333335h614.096592c29.127111466666666 0 53.399703466666665-24.272593066666666 53.399704533333335-53.399704533333335l-92.2358528-388.36148053333335zM220.72888853333336 539.3445930666667h601.9602965333332v53.399703466666665c0 29.127111466666666-24.272593066666666 53.399703466666665-53.399703466666665 53.399703466666665H448.8912597333333v48.54518506666667c0 29.127111466666666-24.272593066666666 53.399703466666665-53.399704533333335 53.399703466666665h-266.9985184c-29.127111466666666 0-53.399703466666665-24.272593066666666-53.399703466666665-53.399703466666665v-635.9419253333333l94.66311146666666 427.19762879999996c-2.427259733333333 31.554370133333336 21.845333333333333 53.399703466666665 50.97244373333333 53.399704533333335z m0 0"  horiz-adv-x="1024" />

    
    <glyph glyph-name="xufanghongzhilishanhonggou" unicode="&#58966;" d="M692.071102 0.975114l-38.614525 15.601829c-36.534281 14.821737-83.729812 14.821737-120.394109 0l-38.614525-15.601829c-17.682072-7.150838-44.335196-7.150838-61.887252 0l-38.614525 15.601829c-36.534281 14.821737-83.729812 14.821737-120.394109 0l-50.445912-20.412392a39.030574 39.030574 0 0 1-21.582529-50.835958 39.134586 39.134586 0 0 1 50.835957-21.582529l50.445912 20.412392c17.682072 7.150838 44.20518 7.150838 61.887252 0l38.614526-15.601828c18.332148-7.410868 39.264601-11.051295 60.197054-11.051295s41.864906 3.640427 60.197054 11.051295l38.614525 15.601828c17.682072 7.150838 44.20518 7.150838 61.887253 0l38.614525-15.601828c20.022346-8.060945 42.644997 1.560183 50.835957 21.582529 8.060945 20.022346-1.560183 42.775013-21.582529 50.835957zM444.132047 149.452514l-38.614525 13.781615c-35.624175 12.741493-81.649568 12.741493-117.403759 0l-50.445911-18.072118a38.887557 38.887557 0 0 1-23.532758-49.795835c7.280853-20.282377 29.513459-30.943626 49.795835-23.532758L314.376841 89.905536c18.462164 6.630777 46.415439 6.630777 64.877603 0l38.614525-13.781615c17.812087-6.370747 38.224479-9.621127 58.636872-9.621128 20.412392 0 40.824784 3.250381 58.636871 9.621128L573.757237 89.905536c3.900457 1.430168 8.320975 2.470289 13.261554 3.380396 21.192483 3.640427 35.494159 23.792788 31.853733 44.985272a39.004571 39.004571 0 0 1-44.985272 31.853733c-9.361097-1.560183-18.202133-3.900457-26.393093-6.760793l-38.614525-13.781615c-18.462164-6.760792-46.285424-6.760792-64.747587-0.130015zM501.858812 299.360081c-15.731844-5.200609-39.524632-5.200609-55.386491 0l-33.803961 11.051295c-31.593702 10.401219-72.418487 10.401219-104.012189 0l-44.075165-14.431691a39.199594 39.199594 0 0 1-24.962926-49.275774 39.199594 39.199594 0 0 1 49.275775-24.962926l44.075165 14.431691c15.731844 5.200609 39.524632 5.200609 55.38649 0l33.803962-11.051295c15.731844-5.200609 33.933977-7.800914 52.006094-7.800914s36.144236 2.600305 52.006095 7.800914a39.199594 39.199594 0 0 1 24.962925 49.275775 39.147588 39.147588 0 0 1-49.275774 24.962925zM302.805485 372.81869h102.582021c21.582529 0 39.004571 17.422042 39.004571 39.004571s-17.422042 39.004571-39.004571 39.00457h-102.582021c-21.582529 0-39.004571-17.422042-39.004571-39.00457s17.422042-39.004571 39.004571-39.004571zM430.870493 545.998984h2.210259l439.711528-4.550533c21.582529-0.650076 39.134586 17.031996 39.394617 38.614525s-17.031996 39.134586-38.614525 39.394617l-92.570848 0.910106L689.080752 704.227527l168.239715 102.842051 158.488573-171.620111c7.670899-8.320975 18.202133-12.611478 28.733367-12.611478 9.491112 0 18.982224 3.380396 26.393093 10.401219a39.030574 39.030574 0 0 1 2.210259 55.12646L892.944642 883.388522a39.160589 39.160589 0 0 1-49.015744 6.890808l-214.915185-131.315389-36.664297 33.413916c-9.751143 8.841036-23.272727 12.221432-36.01422 8.971051l-139.636364-36.01422-61.757237 55.646521c-13.001524 11.701371-32.243779 13.261554-47.065516 3.900457L223.626206 771.315389l-64.227526 51.095987c-14.431691 11.571356-35.104114 11.311326-49.275775-0.520061l-96.081259-80.2194A39.108583 39.108583 0 0 1 9.101067 686.67547a39.108583 39.108583 0 0 1 54.996444-4.940579l71.638396 59.807008 125.204672-99.59167c7.150838-5.72067 15.731844-8.45099 24.312849-8.450991 11.441341 0 22.882682 5.070594 30.553581 14.691722 13.391569 16.901981 10.661249 41.344845-6.240732 54.86643l-21.192483 16.90198 36.534281 23.272728 52.656171-47.455562 56.036567-71.76841c-131.315389 1.300152-247.939055-86.070086-283.823261-212.314881L11.831386-72.613509a39.147588 39.147588 0 0 1 37.444389-49.795836c17.031996 0 32.633824 11.18131 37.444388 28.343322l137.81615 484.176739c26.263078 92.050787 110.902996 155.888268 206.33418 155.888268z m233.117318 75.538852L533.192483 622.968004l-59.676993 76.578974 81.909599 21.062468 108.562722-99.07161zM1038.561706 501.403758l-401.617064 5.590655h-1.560183c-40.824784 0-77.489081-22.492636-96.211275-58.766886a107.613611 107.613611 0 0 1 9.361097-113.763332c0.650076-0.780091 1.300152-1.690198 1.950229-2.470289l389.005586-446.602337a38.952565 38.952565 0 0 1 54.996445-3.770442 38.939563 38.939563 0 0 1 3.770442 54.996445L610.421534 381.919756c-9.101067 13.261554-4.420518 25.743017-1.820214 30.683596 2.600305 5.070594 10.271204 16.771965 27.3032 16.38192l401.617065-5.590655c21.062468 0.26003 39.264601 16.901981 39.524631 38.484509a39.212595 39.212595 0 0 1-38.48451 39.524632z"  horiz-adv-x="1083" />

    
    <glyph glyph-name="jiandukaohejiankong" unicode="&#58912;" d="M798.420592 303.102337H345.374485c-12.539298 0-20.888167-8.380857-20.888167-20.920155 0-12.50731 8.348869-20.856179 20.888167-20.856179h453.046107c12.539298 0 20.888167 8.380857 20.888167 20.856179a20.952143 20.952143 0 0 1-20.888167 20.920155zM856.862676 896H105.272523a83.776584 83.776584 0 0 1-83.488692-83.52068v-801.715356a83.68062 83.68062 0 0 1 83.488692-83.456704h534.231663a252.865176 252.865176 0 0 0-7.741097 39.665125H105.272523a41.84031 41.84031 0 0 0-41.744346 41.744346V812.47932a41.904286 41.904286 0 0 0 41.744346 41.744346h753.669374c23.031363 0 41.84031-18.808947 41.84031-41.744346v-567.14732c14.26665-1.055604 28.21342-3.326752 41.744346-6.621516V812.47932C940.415344 858.414095 902.797451 896 856.862676 896z m-511.488191-780.891166c-12.539298 0-20.888167-8.316881-20.888167-20.856179 0-12.50731 8.348869-20.856179 20.888167-20.856179h260.990128c12.50731 0 20.888167 8.380857 20.888167 20.856179a20.888167 20.888167 0 0 1-20.888167 20.856179h-260.990128z m-87.647133 29.237036L205.554917 92.173435l-27.189804 27.125828a20.088467 20.088467 0 0 1-29.269024 0 20.248407 20.248407 0 0 1 0-29.237036L190.904411 48.317881a22.455579 22.455579 0 0 1 14.650506-6.237661 22.487567 22.487567 0 0 1 14.58653 6.237661l66.790953 66.790953a20.152443 20.152443 0 0 1 0 29.237036 19.992503 19.992503 0 0 1-29.205048 0z m29.17306 189.976759a20.120455 20.120455 0 0 1-29.205048 0L205.522929 282.150194l-27.189804 27.125827a20.152443 20.152443 0 0 1-29.269024 0 20.152443 20.152443 0 0 1 0-29.17306l41.808322-41.808321a22.359615 22.359615 0 0 1 14.650506-6.173685 22.551543 22.551543 0 0 1 14.58653 6.173685l66.790953 66.790953a20.152443 20.152443 0 0 1 0 29.237036zM915.176809 46.750469l-32.531801-7.005373v-40.656754l-56.938648 16.313882v16.249906h8.188929v16.249907l30.772461 6.685493 17.721354 16.569786-5.725853 34.898913-105.336499-16.729726a37.905785 37.905785 0 0 1-2.71898 7.197301l117.843809 18.808946-19.160815 33.427465-12.859178 4.926153-110.166687-17.497439-10.396102-1.695364-11.899537-1.887292-18.233163-2.878921 0.671748-16.66575 20.344371-22.167687 9.212545 1.183556-4.47832 27.605648-17.241535-2.750969-0.223916 6.013745 24.982632 3.934525 1.471448-0.511808 17.561414-20.856179c-5.533925-2.175184-8.348869-12.923154-6.333625-25.110584 2.047232-13.179058 8.892665-22.999375 15.258279-21.943771 2.974884 0.447832 5.341997 3.262776 6.717481 7.485193l1.75934-10.300137-17.465451-18.425091 45.390979 10.683994v-16.249907h8.124953v-24.438835l73.188554-24.374859v-32.563789l32.531801-8.124953v104.600775h-0.031988z m-155.717606 45.67887c2.71898 0.447832 5.661877-3.742597 6.589529-9.564413 0.895664-5.693865-0.575784-10.556041-3.326753-11.003874-2.71898-0.447832-5.661877 3.806573-6.589529 9.436461-0.895664 5.693865 0.543796 10.683994 3.326753 11.131826z m0.895664-50.605023l-6.077721-5.437961-20.504311 12.635262-6.045733 37.553917 7.965013 1.247532 5.501937-34.003248 19.160815-11.995502zM823.339248 223.804073c-97.019618 0-175.966013-78.914407-175.966013-175.934024s78.946395-175.870049 175.966013-175.870049c96.98763 0 175.902037 78.850431 175.902037 175.870049s-78.882419 175.934025-175.902037 175.934024m0-331.107834a155.397726 155.397726 0 0 0-155.237786 155.205798 155.49369 155.49369 0 0 0 155.237786 155.301762 155.49369 155.49369 0 0 0 155.17381-155.301762 155.365738 155.365738 0 0 0-155.17381-155.205798m90.781957 224.843684M225.099588 389.086093h472.174934v-16.825691H225.099588v16.825691zM247.619143 574.616519h41.168562v-145.833313H247.619143zM340.384356 720.449831h41.168562v-291.698613h-41.168562zM433.149569 622.662502h41.168562v-193.911284h-41.168562zM525.914782 696.42684h41.168562v-267.643634h-41.168562zM618.711983 756.500312h41.136574v-327.717106h-41.136574z"  horiz-adv-x="1024" />

    
    <glyph glyph-name="icon--" unicode="&#59272;" d="M401.92 519.68l84.48 102.4V256c0-15.36 10.24-25.6 25.6-25.6s25.6 10.24 25.6 25.6V622.08l84.48-102.4c10.24-10.24 25.6-10.24 35.84 0 10.24 10.24 10.24 25.6 0 35.84l-125.44 153.6c-5.12 5.12-12.8 7.68-20.48 7.68-7.68 0-15.36-2.56-20.48-7.68l-125.44-153.6c-10.24-10.24-10.24-25.6 0-35.84 10.24-10.24 25.6-10.24 35.84 0zM870.4 307.2c-15.36 0-25.6-10.24-25.6-25.6v-179.2H179.2v179.2c0 15.36-10.24 25.6-25.6 25.6s-25.6-10.24-25.6-25.6v-204.8c0-15.36 10.24-25.6 25.6-25.6h716.8c15.36 0 25.6 10.24 25.6 25.6v204.8c0 15.36-10.24 25.6-25.6 25.6z"  horiz-adv-x="1024" />

    
    <glyph glyph-name="ditu2" unicode="&#58881;" d="M625.778 810.667h56.889V128h-56.89V810.667zM341.333 668.444h56.89v-711.11h-56.89v711.11zM56.889 839.111L358.4 668.444 659.911 839.111l307.2-170.667V-71.11L665.6 99.556 364.089-71.111l-307.2 170.667V839.11z m56.889-96.711v-608.711L358.4-2.844l301.511 170.666L904.533 31.29V634.31L659.911 770.844 358.4 600.178 113.778 742.4z"  horiz-adv-x="1024" />

    
    <glyph glyph-name="fabu" unicode="&#58880;" d="M51.2 384l278.756-136.533 22.755 45.51L176.356 384l671.288 364.089L398.222 224.71V-71.11h56.89V201.956l460.8 534.755L773.688 31.29 529.067 179.2l-34.134-45.511L819.2-59.733 1006.933 890.31z"  horiz-adv-x="1024" />

    
    <glyph glyph-name="tixing-tianchong" unicode="&#59158;" d="M808 184l-48 108.8V448c0 102.4-65.6 195.2-160 232-3.2 44.8-41.6 80-88 80s-83.2-35.2-88-80c-96-36.8-160-129.6-160-232v-155.2l-48-108.8c-6.4-14.4-4.8-30.4 3.2-43.2 8-12.8 22.4-20.8 38.4-20.8h508.8c16 0 30.4 8 38.4 20.8s9.6 30.4 3.2 43.2zM512 16c44.8 0 80 35.2 80 80H432c0-44.8 35.2-80 80-80z"  horiz-adv-x="1024" />

    
    <glyph glyph-name="lvzhou_zongshu" unicode="&#58936;" d="M967.89390222 407.59864889C967.89162667 652.16625778 770.27555555 851.32515555 524.51555555 851.62439111V385.13777778h443.60476445c0.34247111 7.96444445-0.22641778 15.22232889-0.22641778 22.46087111zM506.50453333-30.440106669999977c-218.42944-0.00910222-395.63832889 176.74695111-395.63036444 395.17525334C110.86848 565.44369778 260.55111111 730.87772445 453.97333333 756.45155555v56.32455112C228.69333333 786.86776889 54.96718222 596.02488889 54.96718222 364.40746666999996c0-249.30417778 202.17059555-450.76138667 451.46908445-450.76593778C734.9248-86.35278222 923.79022222 83.62666666999996 953.72288 304.35555554999996H897.21742222c-29.47299555-190.00888889-193.15029333-334.80021333-390.71288889-334.79566222z"  horiz-adv-x="1024" />

    
    <glyph glyph-name="yidongduanicon-" unicode="&#58900;" d="M512 772.81c-19.73 0-39.47-3.71-54.46-11.21L140.06 602.85c-30-15-30-39.48 0-54.46l317.45-158.76c15.05-7.49 34.79-11.21 54.52-11.21s39.48 3.72 54.46 11.21L884 548.39c30 15 30 39.47 0 54.46L566.49 761.6c-15 7.5-34.72 11.21-54.46 11.21z m0-588.36c-24.36 0-48.67 4.87-68.1 14.56L132.87 354.48A30.48 30.48 0 0 0 160.16 409l311-155.53c21.44-10.72 60.31-10.72 81.75 0L863.9 409a30.47 30.47 0 0 0 27.24-54.52L580.14 199A155.78 155.78 0 0 0 512 184.45z m0-188.85c-24.36 0-48.67 4.87-68.1 14.56l-311 155.53a30.44 30.44 0 1 0 27.23 54.46l311-155.53c21.44-10.72 60.31-10.72 81.75 0l311 155.53a30.47 30.47 0 1 0 27.24-54.52l-311-155.47c-19.41-9.75-43.72-14.56-68.12-14.56z"  horiz-adv-x="1024" />

    
    <glyph glyph-name="shujujiguanli" unicode="&#58945;" d="M801.88 474.35L960 576 512 832 64 576l158.12-101.65L64 384l131.76-84.71L64 224l448-288 448 288-131.76 75.29L960 384z m34.76-253.57L512 12.08l-324.64 208.7 69.11 39.49L512 96l255.53 164.27zM765.58 335.1l-60.7-39L512 172.08l-192.87 124-60.7 39-71.06 45.68 95.46 54.55 71.06-45.68 60.7-39L512 288l97.41 62.62 60.7 39 71.06 45.68 95.46-54.55z"  horiz-adv-x="1024" />

    
    <glyph glyph-name="shujubiaoweihu" unicode="&#59010;" d="M128 512h128v-512H128zM320 768h128v-768H320zM512 352h128v-352H512zM896 320a96 96 0 0 1-64 90.53V320h-64v90.53a96 96 0 0 1 0-181.06v-216.31A13.16 13.16 0 0 1 781.16 0h37.68A13.16 13.16 0 0 1 832 13.16V229.47A96 96 0 0 1 896 320z"  horiz-adv-x="1024" />

    
    <glyph glyph-name="sousuo" unicode="&#58906;" d="M456.4 68.7c-40.6 0-81.3 6.6-119.6 19.6-54.1 18.3-102.1 48.3-142.8 88.9-35.4 35.4-62.8 76.6-81.4 122.6-18 44.4-27.1 91.3-27.1 139.4s9.1 95 27.1 139.4c18.6 46 46 87.2 81.4 122.6s76.6 62.8 122.6 81.4c44.4 18 91.3 27.1 139.4 27.1s95-9.1 139.4-27.1c46-18.6 87.2-46 122.6-81.4s62.8-76.6 81.4-122.6c18-44.4 27.1-91.3 27.1-139.4s-9.1-95-27.1-139.4c-18.6-46-46-87.2-81.4-122.6-9.8-9.8-25.6-9.8-35.4 0-9.8 9.8-9.8 25.6 0 35.4 60.6 60.6 93.9 141.1 93.9 226.7S743.2 605.5 682.6 666c-60.6 60.6-141.1 93.9-226.7 93.9S289.7 726.6 229.2 666c-125-125-125-328.4 0-453.4 69.6-69.6 165.6-103 263.4-91.8 18 2.1 36 5.7 53.4 10.8 13.3 3.9 27.1-3.7 31-17 3.9-13.3-3.7-27.1-17-31-20.1-5.9-40.9-10.1-61.7-12.4-13.8-1.7-27.9-2.5-41.9-2.5zM899.2-28.8c-6.4 0-12.8 2.4-17.7 7.3L682.7 177.3c-9.8 9.8-9.8 25.6 0 35.4 9.8 9.8 25.6 9.8 35.4 0l198.8-198.8c9.8-9.8 9.8-25.6 0-35.4-4.9-4.9-11.3-7.3-17.7-7.3z"  horiz-adv-x="1024" />

    
    <glyph glyph-name="zhiliang" unicode="&#58903;" d="M512-63C265.129-63 65 137.129 65 384V781a50 50 0 0 0 50 50h794a50 50 0 0 0 50-50v-397c0-246.871-200.129-447-447-447z m387 814a20 20 0 0 1-20 20H145a20 20 0 0 1-20-20v-367c0-213.734 173.266-387 387-387s387 173.266 387 387V751zM722 601H332v-390a30 30 0 0 0-60 0V631a30 30 0 0 0 30 30h420a30 30 0 0 0 0-60zM390.219 469H515.25v20H392a30 30 0 0 0 0 60h123.25a30 30 0 0 0 60 0H699a30 30 0 0 0 0-60H575.25v-20h125.031a29.968 29.968 0 0 0 29.969-29.969v-0.062a29.924 29.924 0 0 0-1-7.561V284a30 30 0 0 0-60 0V409h-94v-72.393a130.038 130.038 0 0 0 100.375-126.576h-0.21a29.991 29.991 0 0 0-59.978 0.438c0 0.574 0.055 1.134 0.086 1.7a69.989 69.989 0 0 1-139.945-2.139h-0.225a29.99 29.99 0 1 0-59.631 4.762 130.039 130.039 0 0 0 99.528 121.632V409h-95v-125a30 30 0 0 0-60 0V439.031A29.968 29.968 0 0 0 390.219 469z"  horiz-adv-x="1024" />

    
    <glyph glyph-name="-wakuangjiankong" unicode="&#58884;" d="M395.776-10.24c-71.168 0-142.336 27.136-196.608 81.408C146.432 123.904 117.76 193.536 117.76 267.776s28.672 143.872 81.408 196.608l94.208 94.208c22.016 22.016 51.712 34.304 82.944 34.304s60.928-12.288 82.944-34.304l22.528-22.528 74.752 74.752-25.088 25.088c-15.872 15.872-24.576 36.864-24.576 58.88 0 22.528 8.704 43.008 24.576 58.88 32.256 32.768 85.504 32.768 117.76 0l231.936-231.936c32.256-32.768 32.256-85.504 0-117.76-15.872-15.872-36.864-24.576-58.88-24.576-22.528 0-43.008 8.704-58.88 24.576l-25.088 25.088-74.752-74.752 22.528-22.528c45.568-45.568 45.568-120.32 0-166.4l-94.208-94.208C538.112 16.896 466.944-10.24 395.776-10.24zM376.832 526.336c-13.824 0-26.624-5.12-35.84-14.848L246.272 417.28c-39.936-39.936-61.952-93.184-61.952-149.504s22.016-109.568 61.952-149.504c82.432-82.432 216.576-82.432 299.008 0l94.208 94.208c19.968 19.968 19.968 52.224 0 72.192l-46.08 46.08c-12.8 12.8-12.8 34.304 0 47.104l121.856 121.856c12.8 12.8 34.304 12.8 47.104 0l48.64-48.64c4.096-4.096 9.216-5.12 11.776-5.12 2.56 0 7.68 0.512 11.776 5.12 6.656 6.656 6.656 17.408 0 23.552L602.624 706.56c-4.096 4.096-9.216 5.12-11.776 5.12s-7.68-0.512-11.776-5.12c-4.096-4.096-5.12-9.216-5.12-11.776s0.512-7.68 5.12-11.776l48.64-48.64c12.8-12.8 12.8-34.304 0-47.104L505.856 465.92c-12.8-12.8-34.304-12.8-47.104 0l-46.08 46.08c-9.728 9.216-22.528 14.336-35.84 14.336zM318.464 157.696c-8.704 0-16.896 3.072-23.552 9.728-12.8 12.8-12.8 34.304 0 47.104l146.432 146.432c12.8 12.8 34.304 12.8 47.104 0 12.8-12.8 12.8-34.304 0-47.104l-146.432-146.432c-6.656-6.656-15.36-9.728-23.552-9.728z"  horiz-adv-x="1024" />

    
    <glyph glyph-name="icon-test" unicode="&#58886;" d="M828.5 9.700000000000045H238.4c-9.9 0-18 8.1-18 18v4c0 9.9 8.1 18 18 18h590.1c9.9 0 18-8.1 18-18v-4c0-9.9-8.1-18-18-18zM828.5 211.39999999999998H238.4c-9.9 0-18 8.1-18 18v4c0 9.9 8.1 18 18 18h590.1c9.9 0 18-8.1 18-18v-4c0-9.9-8.1-18-18-18zM409 446.5H230.2c-17.6 0-32 14.4-32 32V657.3c0 17.6 14.4 32 32 32H409c17.6 0 32-14.4 32-32v-178.8c0-17.6-14.4-32-32-32z m-170.8 40H401V649.3H238.2v-162.8zM822.4 458.5H552.9c-11 0-20 9-20 20s9 20 20 20h269.5c11 0 20-9 20-20s-9-20-20-20zM822.4 626.5H552.9c-11 0-20 9-20 20s9 20 20 20h269.5c11 0 20-9 20-20s-9-20-20-20zM884.4-128H182.5c-46.3 0-83.9 37.7-83.9 83.9V804.1C98.6 850.3 136.3 888 182.5 888h701.9c46.3 0 83.9-37.7 83.9-83.9V-44c0-46.3-37.7-84-83.9-84zM182.5 848c-24.2 0-43.9-19.7-43.9-43.9V-44c0-24.2 19.7-43.9 43.9-43.9h701.9c24.2 0 43.9 19.7 43.9 43.9V804.1c0 24.2-19.7 43.9-43.9 43.9H182.5z"  horiz-adv-x="1024" />

    
    <glyph glyph-name="xiajiantou" unicode="&#58901;" d="M862.752 569.984H161.248l349.696-371.936L862.72 569.984z"  horiz-adv-x="1024" />

    
    <glyph glyph-name="filter" unicode="&#59079;" d="M859.02 661.476l0.808 0.756 0.749 0.813c27.047 29.356 33.876 70.34 17.823 106.957-15.942 36.366-50.416 58.957-89.968 58.957H163.604c-38.83 0-73.043-22.012-89.29-57.444-16.361-35.683-10.632-76.301 14.949-106.004l0.97-1.126 280.311-266.85 2.032-312.074c0.107-16.502 13.517-29.805 29.995-29.805l0.2 0.001c16.568 0.107 29.912 13.626 29.804 30.194l-2.198 337.564-296.478 282.241c-9.526 11.758-11.426 26.933-5.044 40.851 6.446 14.059 19.437 22.452 34.75 22.452h624.828c15.6 0 28.69-8.616 35.017-23.047 6.31-14.391 3.924-29.831-6.354-41.497l-304.13-284.832 1.302-458.63c0.047-16.54 13.469-29.916 29.998-29.915h0.087c16.568 0.047 29.962 13.517 29.915 30.085L573.04 393.64l285.98 267.836zM657.265 300.713c0-16.498 13.499-29.997 29.997-29.997h243.897c16.498 0 29.997 13.498 29.997 29.997 0 16.498-13.499 29.997-29.997 29.997H687.262c-16.498 0-29.997-13.499-29.997-29.997zM931.159 161.831H687.262c-16.498 0-29.997-13.499-29.997-29.997s13.499-29.997 29.997-29.997h243.897c16.498 0 29.997 13.499 29.997 29.997 0 16.498-13.499 29.997-29.997 29.997zM931.159-7.047H687.262c-16.498 0-29.997-13.499-29.997-29.997s13.499-29.997 29.997-29.997h243.897c16.498 0 29.997 13.499 29.997 29.997 0 16.498-13.499 29.997-29.997 29.997z"  horiz-adv-x="1024" />

    
    <glyph glyph-name="wuranyuanguanli" unicode="&#58952;" d="M1023.1 77c-1 13.5-3.5 14.7-16.9 13.6-14.7-1.2-27.2 6.2-32.3 19-5.2 13.1-1.4 26.7 10 36.1 7.7 6.3 8.7 11.5 1.7 18.9-10.6 11.2-21.6 22-33.1 32.2-8.9 7.9-13.1 6.9-20.6-2.6-9.2-11.6-23.9-15-37.3-8.8-12.5 5.9-18.4 16.6-17.5 31.8 0.7 10.4-2.4 14.1-12.8 14.9-8.1 0.6-16.2 1.1-23.9 1.6-8-0.9-15.5-1.5-22.9-2.5-10.4-1.4-12.6-4.4-11.7-15 1.4-16.1-5.3-28.2-18.7-33.7-13-5.4-26.4-1.5-36.5 10.5-6 7.1-11.3 8.1-17.9 1.8-11.2-10.5-22.2-21.3-32.4-32.9-8.7-9.8-7.7-13.2 2.3-21.5 9.6-8 13.7-18.2 11.1-30.6-2.7-12.6-10.7-20.6-23.1-23.6-4.6-1.1-9.6-0.4-14.4-0.3-6.5 0.1-10.7-2.9-11.5-9.3-2.4-17.8-2.5-35.6 0.8-53.3 1.3-7 5-9.7 12.1-9.3 3.7 0.2 7.5 1.1 11.1 0.7 13-1.3 23.3-10 26.8-22.2 3.5-12.1-0.7-24.5-11.1-32.9-8.6-6.9-9.6-11.7-2.1-19.7 10.4-11 21.1-21.8 32.5-31.8 9.7-8.5 13.4-7.5 21.4 2.8 11.1 14.2 30.9 16.1 44.5 4.4 9.1-7.8 11.6-17.7 10.4-29.1-0.9-8.5 2.2-13.3 9.7-13.5 16.7-0.3 33.4-0.4 50 0.6 10.8 0.7 13 4.5 11.8 15.4-1.8 15.8 4.9 28.3 18.2 33.9 13.4 5.7 27 1.8 37-10.5 6.1-7.5 11.4-8.6 18.3-2.1 11.4 10.9 22.6 22.2 33.1 34 7.6 8.6 6.5 13.2-2.6 20.1-7.7 5.8-12 13.4-12.5 23-1.1 19.5 14.8 34.3 34.5 32.4 10.1-1 15 1.9 15.3 10.7 0.2 15.6 0.4 31.2-0.8 46.8zM843.9-25.7c-43.4 0.5-78.2 35.8-77.6 78.7 0.6 42.4 35.5 77.2 77.3 77 43.2-0.2 78.8-35.7 78.4-78.2-0.4-43-35.7-78-78.1-77.5z m0 0M128.3 598.5c13.1 2.5 33.7-7.2 50.4-17 7.9-7.3 17.4-13.5 27.9-18.5h0.1c16.5-7.8 35.8-12.5 56.5-12.9-13.7-13.2-24.5-27.4-30.2-42.3-28-74.2-15-129.9-15-129.9h37S243 486 310.6 490.7c33.6 2.3 64.9-3 92.5-4.9 5.3-5.8 11.3-11.2 18-16.2-12.2-54.3-3.6-91.7-3.6-91.7h37s-4.1 38.5 6.8 70.5c18.6-6.6 39.2-10.4 61-10.4 10 0 19.7 0.8 29.2 2.3 5.3-1.4 10.8-2.6 16.4-3.4 14.7-43.2 65.7-75.1 126.5-75.1 44.5 0 83.8 17.1 107.4 43.2 61.1 7.5 107.9 48.1 107.9 97.2 0 3.1-0.2 6.1-0.6 9.1 33.1 13.3 55.7 40 55.7 70.7 0 30.4-22.1 56.9-54.7 70.3 8.8 10.2 14 22.4 14 35.6 0 28.1-23.4 51.7-55.9 60.6 2.6 7.4 4.1 15.1 4.1 23.1 0 49.3-52 89.3-116.2 89.3-9.2 0-18.1-0.9-26.7-2.5C715.9 880.6 687 896 653.2 896c-35 0-65-16.5-77.6-39.9-14.6 9-33.1 14.4-53.3 14.4-47.1 0-85.3-29.4-85.3-65.6 0-1.7 0.2-3.4 0.3-5C419.2 811.8 395.7 819 370 819c-44.1 0-81.7-21.2-96.7-51.1-5.9 1.2-11.9 2.1-18.3 2.1-38.1 0-68.9-23.7-68.9-53 0-3.1 0.5-6.1 1.2-9-23.2-8.4-55.4-23.4-81.4-48.4-27.6-26.5-57-87.1-54.9-96.7h31.7s20.3 30.8 45.6 35.6zM620 52.9c0 36 9.3 69.5 24.4 99.6l-64.3-47.4H539l-31.8 259.1h-138l-31.8-259.1h-3.7l-31.8 259.1h-138l-31.8-259.1h-3.2l-17.7 430.2H20.9L3.2 105.1H0V-128h713.2C657-87.4 620-21.7 620 52.9z"  horiz-adv-x="1024" />

    
    <glyph glyph-name="fanhui1" unicode="&#58929;" d="M448 687.104v-71.168H260.608a64.512 64.512 0 0 1-66.56-66.56v-397.312a66.56 66.56 0 0 1 51.2-65.024 92.672 92.672 0 0 1 16.384 0h186.368v-70.656H254.464a136.192 136.192 0 0 0-129.024 109.056 138.752 138.752 0 0 0 0 26.112V553.472A132.608 132.608 0 0 0 199.68 673.792 116.736 116.736 0 0 0 256 687.104h192z m147.968-460.8H350.72a18.944 18.944 0 0 0-21.504 14.848 31.232 31.232 0 0 0 0 6.144V458.24a18.432 18.432 0 0 0 20.992 20.48h245.76v4.096V670.72a18.432 18.432 0 0 0 32.256 13.312l10.752-10.752L773.632 537.6l172.544-172.544a18.432 18.432 0 0 0 0-29.184l-247.296-246.784-70.656-70.144a18.432 18.432 0 0 0-20.992-5.632 18.432 18.432 0 0 0-11.776 19.456v181.76z"  horiz-adv-x="1024" />

    
    <glyph glyph-name="fuwuxiangmu" unicode="&#58882;" d="M540.4 411.5V602.7c0 42.5 12 81.2 37.1 115.6 26.4 36 61.1 60.7 104.4 71.7 69.3 17.5 131.3 2.6 184-46.1 29.4-26.7 49-62.5 55.9-101.6 12.7-70.1-6.7-130.5-58.8-179.5-28.3-26.6-62.5-42.2-100.8-48.3-11-1.8-22.1-2.7-33.3-2.7-61.5-0.2-122.9-0.1-184.4-0.1l-4.1-0.2z m-56.5 0H294c-50 0-93.8 16.3-131 49.6-30.1 26.5-51 62-59.6 101.2-15.6 69.2 8.1 141.3 61.7 187.7 28.6 24.7 61.6 40 99 44.9 60.6 7.9 113.6-9 158.2-50.9 32.3-30.4 51.7-68 59-111.6 1.7-9.9 2.5-19.9 2.6-29.9 0.2-62.6 0.1-125.1 0.1-187.7l-0.1-3.3z m0-56.4v-190.3c0.1-50-16.4-93.8-49.8-131-29.5-32.8-66.1-53.9-109.8-61-66.9-10.9-124.4 8.6-171.9 56.7-25.8 25.8-43.2 58.9-49.9 94.8-11.6 61 2.2 115.9 42.7 163.2 29.8 34.8 68 55.6 113 64.1 12.3 2.3 24.9 3.4 37.4 3.4h184.1l4.2 0.1z m56.5-2.2h191.5c38.8 0 74.8-9.8 107.4-31 40-26.1 67.1-62.1 79.3-108.2 16.3-61.3 5-117.9-33.4-168.5-26.4-34.7-61.3-57.5-103.4-68.9-20.8-5.8-42.5-7.7-64-5.6-73.1 7.6-125.8 45-158.9 110.3-10 19.6-15.3 40.7-17.6 62.6-0.7 6.9-0.9 13.8-0.9 20.8-0.1 61.7-0.1 123.4 0 185.2v3.3z"  horiz-adv-x="1024" />

    


  </font>
</defs>
</svg>
